<?xml version="1.0" encoding="utf-8"?>
<!-- Generator: Adobe Illustrator 27.5.0, SVG Export Plug-In . SVG Version: 6.00 Build 0)  -->
<svg version="1.1" xmlns="http://www.w3.org/2000/svg" xmlns:xlink="http://www.w3.org/1999/xlink" x="0px" y="0px"
	 viewBox="0 0 500 500" style="enable-background:new 0 0 500 500;" xml:space="preserve">
<g id="Stairs_00000140734669701560275290000016250037952626790057_">
	<g id="Stairs">
		<g>
			<rect x="20.133" y="313.517" style="fill:#FF95FB;" width="448.442" height="10.976"/>
			<g>
				
					<line style="fill:none;stroke:#FFFFFF;stroke-width:1.5;stroke-linecap:round;stroke-linejoin:round;stroke-miterlimit:10;" x1="459.854" y1="324.721" x2="459.854" y2="313.753"/>
				
					<line style="fill:none;stroke:#FFFFFF;stroke-width:1.5;stroke-linecap:round;stroke-linejoin:round;stroke-miterlimit:10;" x1="387.734" y1="324.721" x2="387.734" y2="313.753"/>
				
					<line style="fill:none;stroke:#FFFFFF;stroke-width:1.5;stroke-linecap:round;stroke-linejoin:round;stroke-miterlimit:10;" x1="315.614" y1="324.721" x2="315.614" y2="313.753"/>
				
					<line style="fill:none;stroke:#FFFFFF;stroke-width:1.5;stroke-linecap:round;stroke-linejoin:round;stroke-miterlimit:10;" x1="243.493" y1="324.721" x2="243.493" y2="313.753"/>
				
					<line style="fill:none;stroke:#FFFFFF;stroke-width:1.5;stroke-linecap:round;stroke-linejoin:round;stroke-miterlimit:10;" x1="171.373" y1="324.721" x2="171.373" y2="313.753"/>
				
					<line style="fill:none;stroke:#FFFFFF;stroke-width:1.5;stroke-linecap:round;stroke-linejoin:round;stroke-miterlimit:10;" x1="99.253" y1="324.721" x2="99.253" y2="313.753"/>
				
					<line style="fill:none;stroke:#FFFFFF;stroke-width:1.5;stroke-linecap:round;stroke-linejoin:round;stroke-miterlimit:10;" x1="27.133" y1="324.721" x2="27.133" y2="313.753"/>
			</g>
		</g>
		
			<line style="fill:none;stroke:#FF95FB;stroke-width:1.5;stroke-linecap:round;stroke-linejoin:round;stroke-miterlimit:10;" x1="448.171" y1="305.337" x2="20.13" y2="305.339"/>
		<rect x="20.129" y="366.159" style="fill:#FF95FB;" width="468.846" height="10.969"/>
		<g>
			
				<line style="fill:none;stroke:#FFFFFF;stroke-width:1.5;stroke-linecap:round;stroke-linejoin:round;stroke-miterlimit:10;" x1="480.257" y1="377.475" x2="480.257" y2="366.507"/>
			
				<line style="fill:none;stroke:#FFFFFF;stroke-width:1.5;stroke-linecap:round;stroke-linejoin:round;stroke-miterlimit:10;" x1="408.136" y1="377.475" x2="408.136" y2="366.507"/>
			
				<line style="fill:none;stroke:#FFFFFF;stroke-width:1.5;stroke-linecap:round;stroke-linejoin:round;stroke-miterlimit:10;" x1="336.016" y1="377.475" x2="336.016" y2="366.507"/>
			
				<line style="fill:none;stroke:#FFFFFF;stroke-width:1.5;stroke-linecap:round;stroke-linejoin:round;stroke-miterlimit:10;" x1="263.896" y1="377.475" x2="263.896" y2="366.507"/>
			
				<line style="fill:none;stroke:#FFFFFF;stroke-width:1.5;stroke-linecap:round;stroke-linejoin:round;stroke-miterlimit:10;" x1="191.776" y1="377.475" x2="191.776" y2="366.507"/>
			
				<line style="fill:none;stroke:#FFFFFF;stroke-width:1.5;stroke-linecap:round;stroke-linejoin:round;stroke-miterlimit:10;" x1="119.655" y1="377.475" x2="119.655" y2="366.507"/>
			
				<line style="fill:none;stroke:#FFFFFF;stroke-width:1.5;stroke-linecap:round;stroke-linejoin:round;stroke-miterlimit:10;" x1="47.535" y1="377.475" x2="47.535" y2="366.507"/>
		</g>
		
			<line style="fill:none;stroke:#FF95FB;stroke-width:1.5;stroke-linecap:round;stroke-linejoin:round;stroke-miterlimit:10;" x1="468.573" y1="358.091" x2="20.13" y2="358.091"/>
		
			<polyline style="fill:none;stroke:#FF95FB;stroke-width:1.5;stroke-linecap:round;stroke-linejoin:round;stroke-miterlimit:10;" points="
			488.975,410.843 488.975,366.159 468.573,358.091 468.573,313.407 		"/>
		
			<polyline style="fill:none;stroke:#FF95FB;stroke-width:1.5;stroke-linecap:round;stroke-linejoin:round;stroke-miterlimit:10;" points="
			468.573,313.405 448.171,305.337 448.171,260.653 		"/>
		
			<line style="fill:none;stroke:#FF95FB;stroke-width:1.5;stroke-linecap:round;stroke-linejoin:round;stroke-miterlimit:10;" x1="448.171" y1="260.655" x2="427.768" y2="252.587"/>
		
			<line style="fill:none;stroke:#FF95FB;stroke-width:1.5;stroke-linecap:round;stroke-linejoin:round;stroke-miterlimit:10;" x1="20.13" y1="410.843" x2="488.975" y2="410.843"/>
		<g>
			<rect x="20.133" y="260.652" style="fill:#FF95FB;" width="428.038" height="10.976"/>
			<g>
				
					<line style="fill:none;stroke:#FFFFFF;stroke-width:1.5;stroke-linecap:round;stroke-linejoin:round;stroke-miterlimit:10;" x1="439.452" y1="271.623" x2="439.452" y2="260.655"/>
				
					<line style="fill:none;stroke:#FFFFFF;stroke-width:1.5;stroke-linecap:round;stroke-linejoin:round;stroke-miterlimit:10;" x1="367.332" y1="271.623" x2="367.332" y2="260.655"/>
				
					<line style="fill:none;stroke:#FFFFFF;stroke-width:1.5;stroke-linecap:round;stroke-linejoin:round;stroke-miterlimit:10;" x1="295.211" y1="271.623" x2="295.211" y2="260.655"/>
				
					<line style="fill:none;stroke:#FFFFFF;stroke-width:1.5;stroke-linecap:round;stroke-linejoin:round;stroke-miterlimit:10;" x1="223.091" y1="271.623" x2="223.091" y2="260.655"/>
				
					<line style="fill:none;stroke:#FFFFFF;stroke-width:1.5;stroke-linecap:round;stroke-linejoin:round;stroke-miterlimit:10;" x1="150.971" y1="271.623" x2="150.971" y2="260.655"/>
				
					<line style="fill:none;stroke:#FFFFFF;stroke-width:1.5;stroke-linecap:round;stroke-linejoin:round;stroke-miterlimit:10;" x1="78.851" y1="271.623" x2="78.851" y2="260.655"/>
			</g>
		</g>
		
			<line style="fill:none;stroke:#FF95FB;stroke-width:1.5;stroke-linecap:round;stroke-linejoin:round;stroke-miterlimit:10;" x1="20.13" y1="252.587" x2="427.768" y2="252.587"/>
	</g>
</g>
<g id="Character_3">
	<g id="Character_00000034068009314575105550000016801154237194695602_">
		<g id="Head_00000034072117388751455310000010250376990648541863_">
			<g id="Hair_00000072987068424253634440000001483935455096696986_">
				<g>
					<path style="fill:#00826F;" d="M376.573,149.155c-2.771-1.464-5.088-3.254-6.46-6.255c-1.019-2.23-1.167-4.947,0.022-7.091
						c0.957-1.725,2.753-3.161,2.74-5.133c-0.01-1.654-1.316-2.981-1.929-4.517c-0.78-1.953-0.338-4.336,1.09-5.879
						c0.926-1,2.177-1.626,3.258-2.455c3.545-2.717,1.146-6.299,0.708-9.846c-0.602-4.876,1.397-9.098,5.096-12.258
						c0,0,31.803-3.19,31.804-3.19c12.324,9.908,16.492,22.161,17.601,28.986c1.205,7.418,0.368,15.478-3.958,21.623
						c-4.899,6.959-15.946,11.551-23.166,12.027C399.217,155.441,389.455,155.96,376.573,149.155z"/>
					
						<path style="fill:none;stroke:#00826F;stroke-width:1.5;stroke-linecap:round;stroke-linejoin:round;stroke-miterlimit:10;" d="
						M376.358,117.746c-0.76,0.243-1.521,0.486-2.282,0.729c-1.299,0.415-2.638,0.853-3.662,1.752
						c-1.504,1.32-2.08,3.598-1.384,5.474c0.374,1.009,1.063,1.868,1.551,2.827s0.761,2.141,0.263,3.095
						c-0.307,0.587-0.858,0.998-1.307,1.485c-1.899,2.058-1.802,5.349-0.643,7.897c1.12,2.462,3.377,4.63,6.08,4.728"/>
					
						<path style="fill:none;stroke:#00826F;stroke-width:1.5;stroke-linecap:round;stroke-linejoin:round;stroke-miterlimit:10;" d="
						M387.751,91.783c-5.027,1.27-9.365,3.68-11.804,6.48c-2.439,2.801-3.125,7.516-1.735,10.96c0.727,1.801,2.091,3.269,2.993,4.99
						c0.902,1.72,1.254,4.004,0,5.486"/>
				</g>
				<path style="fill:#00826F;" d="M379.924,114.552c3.3,10.805,15.023,16.802,26.185,13.393
					c11.162-3.408,17.535-14.931,14.236-25.736c-3.299-10.805-15.023-16.802-26.185-13.393
					C380.054,90.654,370.023,102.514,379.924,114.552z"/>
			</g>
			<g>
				<path style="fill:#FFC4B0;" d="M378.872,115.499c-0.148-1.918-0.331-6.025,1.313-10.486c1.149-3.12,4.066-9.149,11.718-10.369
					c2.503,5.198,6.212,5.546,11.252,8.334c3.712,2.053,4.731,7.642,4.731,7.642c-0.354,1.933,1.71,6.837,1.71,6.837l1.072,4.013
					l1.637,16.403l5.588,3.613l-24.471,8.606l-4.478-13.367l7.202-0.167l0.394-4.707
					C388.208,132.479,379.889,128.675,378.872,115.499z"/>
			</g>
			<g>
				<g>
					<g>
						<path style="fill:#FFFFFF;" d="M399.769,110.931c-0.604-1.258-2.813-2.124-4.43-2.04c-1.617,0.084-3.191,1.092-3.416,3.143
							C392.717,113.972,397.871,113.948,399.769,110.931z"/>
					</g>
					<path style="fill:#D48983;" d="M392.413,109.865c-0.316,0.206-0.457,0.459-0.698,0.714c-0.42,0.444-0.316-0.227-0.268-0.509
						c0.137-0.819,0.494-1.602,1.029-2.239c0.831-0.989,2.234-1.721,3.523-1.789c1.128-0.059,2.301,0.194,3.202,0.875
						c0.827,0.625,1.383,1.599,1.5,2.63c0.036,0.315,0.008,0.686-0.251,0.869c-0.145,0.103-0.332,0.122-0.51,0.115
						c-0.901-0.036-1.661-0.642-2.478-1.023C395.866,108.763,393.889,108.902,392.413,109.865z"/>
					<path style="fill:#303030;" d="M394.118,112.292c0.65,1.016,2.043,1.294,3.111,0.621c1.068-0.674,1.407-2.043,0.756-3.059
						c-0.65-1.016-2.043-1.294-3.111-0.621S393.468,111.276,394.118,112.292z"/>
					<polygon style="fill:#FFFFFF;" points="398.136,109.775 396.052,111.073 398.581,110.952 					"/>
					
						<path style="fill:none;stroke:#303030;stroke-width:1.5;stroke-linecap:round;stroke-linejoin:round;stroke-miterlimit:10;" d="
						M391.208,111.777c0.562-2.733,2.639-2.968,4.257-3.052s3.413,1.158,4.305,2.206"/>
					
						<path style="fill:none;stroke:#303030;stroke-width:1.5;stroke-linecap:round;stroke-linejoin:round;stroke-miterlimit:10;" d="
						M389.321,109.196c1.18,0.705,2.255,0.347,3.326,0.124"/>
				</g>
				<g>
					<g>
						<path style="fill:#FFFFFF;" d="M379.596,113.484c2.375,0.942,5.525-0.11,6.266-1.699c-0.44-1.184-1.745-2.046-3.182-2.104
							c-0.372-0.012-2.055,0.142-3.054,0.57C379.544,110.92,379.374,111.646,379.596,113.484z"/>
					</g>
					<path style="fill:#D48983;" d="M384.482,108.126c-0.587-0.412-1.237-0.753-1.94-0.895c-0.703-0.142-1.466-0.07-2.083,0.296
						c-0.617,0.366-1.061,1.049-1.046,1.766c0.003,0.164,0.032,0.334,0.129,0.466c0.144,0.196,0.41,0.265,0.653,0.247
						c0.242-0.019,0.472-0.11,0.705-0.179c1.615-0.476,3.396,0.185,4.665,1.292c0.242,0.212,0.691,0.463,0.889,0.05
						c0.144-0.299-0.13-0.869-0.256-1.135C385.829,109.252,385.183,108.618,384.482,108.126z"/>
					<path style="fill:#303030;" d="M381.548,113.462c0.647,0.271,1.439,0.16,2.025-0.313c0.779-0.627,0.908-1.824,0.288-2.672
						c-0.666-0.912-2.085-1-2.897-0.221c-0.491,0.471-0.699,1.218-0.521,1.876c0.064,0.237,0.174,0.46,0.308,0.665
						C380.956,113.11,381.235,113.331,381.548,113.462z"/>
					<polygon style="fill:#FFFFFF;" points="383.954,110.373 382.54,111.502 384.449,111.371 					"/>
					
						<path style="fill:none;stroke:#303030;stroke-width:1.5;stroke-linecap:round;stroke-linejoin:round;stroke-miterlimit:10;" d="
						M380.216,110.104c1.162-0.414,1.965-0.443,2.464-0.423c1.435,0.059,2.738,0.922,3.179,2.107"/>
					
						<path style="fill:none;stroke:#303030;stroke-width:1.5;stroke-linecap:round;stroke-linejoin:round;stroke-miterlimit:10;" d="
						M378.465,109.951c0.296,0.224,0.492,0.344,0.899,0.377c0.345,0.028,0.807-0.044,1.117-0.206"/>
				</g>
				<path style="fill:none;stroke:#303030;stroke-width:1.5;stroke-linecap:round;stroke-linejoin:round;stroke-miterlimit:10;" d="
					M383.77,103.34c-1.285,0.044-3.139,0.555-4.35,2.107"/>
				<g>
					<path style="fill:#303030;" d="M396.54,131.851c5.047-0.122,10.245-3.91,11.24-6.61c-0.049,3.825-2.682,7.857-11.592,10.164
						L396.54,131.851z"/>
				</g>
				<path style="fill:none;stroke:#303030;stroke-width:1.5;stroke-linecap:round;stroke-linejoin:round;stroke-miterlimit:10;" d="
					M387.284,118.133c-1.329-0.411-2.338-1.175-2.234-2.535c0.108-1.412,2.234-2.226,2.234-9.211"/>
				<path style="fill:none;stroke:#303030;stroke-width:1.5;stroke-linecap:round;stroke-linejoin:round;stroke-miterlimit:10;" d="
					M394.778,119.986c-1.219,1.957-4.758,3.184-7.027,2.405"/>
				<path style="fill:none;stroke:#303030;stroke-width:1.5;stroke-linecap:round;stroke-linejoin:round;stroke-miterlimit:10;" d="
					M391.952,102.88c2.552-1.323,5.819-0.079,8.376,2.007"/>
			</g>
			<path style="fill:none;stroke:#00826F;stroke-width:1.5;stroke-linecap:round;stroke-linejoin:round;stroke-miterlimit:10;" d="
				M391.907,92.76c-0.835,2.183,0.577,8.823,6.097,13.044c2.992,2.288,7.668,3.146,11.432,3.014"/>
			<g>
				<g>
					
						<path style="fill:#FFC4B0;stroke:#303030;stroke-width:1.5;stroke-linecap:round;stroke-linejoin:round;stroke-miterlimit:10;" d="
						M406.971,112.513c0.848-2.316,2.531-4.476,4.893-5.41c2.362-0.934,5.402-0.335,6.711,1.717c1.295,2.029,0.549,4.9-1.269,6.599
						c-1.818,1.699-4.729,2.67-7.789,2.13"/>
					<g>
						
							<path style="fill:none;stroke:#303030;stroke-width:1.5;stroke-linecap:round;stroke-linejoin:round;stroke-miterlimit:10;" d="
							M416.28,110.378c-1.36-0.559-3.032-0.389-4.277,0.434c-1.245,0.824-2.021,2.275-1.985,3.71"/>
						
							<path style="fill:none;stroke:#303030;stroke-width:1.5;stroke-linecap:round;stroke-linejoin:round;stroke-miterlimit:10;" d="
							M414.105,112.591c-0.577-0.283-1.26-0.33-1.911-0.241c-0.651,0.088-1.285,0.34-1.857,0.609"/>
					</g>
				</g>
				<g>
					<path style="fill:#303030;" d="M413.149,118.738c0,1.419-1.15,2.569-2.569,2.569c-1.419,0-2.569-1.15-2.569-2.569
						c0-1.419,1.15-2.569,2.569-2.569C411.999,116.169,413.149,117.319,413.149,118.738z"/>
					
						<path style="fill:none;stroke:#303030;stroke-width:1.5;stroke-linecap:round;stroke-linejoin:round;stroke-miterlimit:10;" d="
						M417.224,112.955c1.172,0.054,2.296,0.747,2.871,1.77"/>
				</g>
			</g>
		</g>
		<g id="Arm_00000169524624924107220050000006450283021589741974_">
			<path style="fill:#D48983;" d="M383.038,139.975c-5.986-0.078-11.431,7.17-18.029,17.309
				c-6.599,10.139-9.284,14.043-9.284,14.043l-29.39-5.032l-3.859,14.304c0,0,25.02,8.845,32.693,9.862
				c8.945,1.186,11.512-1.828,15.769-6.543c4.928-5.458,13.512-16.275,13.512-16.275L383.038,139.975z"/>
			
				<path style="fill:#303030;stroke:#303030;stroke-width:1.5;stroke-linecap:round;stroke-linejoin:round;stroke-miterlimit:10;" d="
				M385.651,137.274c-8.712,1.075-10.213,2.829-16.887,12.818c-4.068,6.087-8.175,11.872-8.175,11.872s6.878,9.221,15.77,11.129
				l9.293-13.371V137.274z"/>
		</g>
		<g id="Legs_00000165204757453240604330000001049495718597194667_">
			<g id="Leg_00000168084833777860642020000012280581138330890935_">
				<g>
					<path style="fill:#FFC4B0;" d="M261.097,246.19c0.097,2.654,3.49,3.065,5.418,3.266c2.867,0.299,5.753,0.349,8.633,0.39
						c11.692,0.164,23.386,0.159,35.077-0.014c3.157-0.047,6.415-0.127,9.295-1.42c5.151-2.312,6.014-7.872,5.057-12.925
						c-0.334-1.765-0.429-3.185-0.293-5.025c0.129-1.75,0.161-3.258,0.781-4.897c0.643-1.698,1.319-3.383,2.01-5.062
						c2.801-6.804,5.915-13.509,8.201-20.512c0,0,5.435,12.39,19.067,36.947c6.829,12.302,47.746,20.825,61.762,14.988
						c14.016-5.837,13.378-32.02,13.378-32.02l-36.25-0.84c-16.681-20.175-39.794-45.497-47.521-52.782
						c-10.436-9.84-16.814-11.923-24.889-9.261c-5.268,1.737-10.308,7.671-11.622,16.182c-1.128,7.301-2.857,17.657-4.298,27.944
						c-0.731,5.218-1.488,10.433-2.385,15.625c-0.35,2.028-0.546,4.237-1.16,6.203c-0.782,2.509-2.964,4.31-5.043,5.747
						c-9.578,6.62-21.054,9.752-31.863,14.079C262.875,243.434,261.035,244.491,261.097,246.19z"/>
					<path style="fill:#303030;" d="M328.277,217.62c2.782,0.606,0.085,5.255-0.621,7.738c-0.706,2.483-1.495,3.107-1.495,3.107
						s-1.33,3.74-1.33,3.74c-0.261,0.734,0.679,2.956,0.828,3.773c0.244,1.331,0.4,2.664,0.487,4.014
						c0.152,2.338-0.401,4.708-1.643,6.735c-0.783,1.279-2.086,2.665-3.437,3.359c-1.66,0.853-4.322,0.803-6.155,0.938
						c-4.341,0.321-8.697,0.109-13.041-0.028c-7.433-0.235-14.872-0.25-22.306-0.044c-5.655,0.157-11.368,0.436-16.921-0.64
						c-0.831-0.161-1.679-0.362-2.373-0.845c-1.385-0.965-1.832-3-1.104-4.523c0.858-1.795,2.39-1.839,3.996-2.486
						c1.88-0.757,3.672-1.44,5.649-1.984c3.826-1.052,7.557-2.447,11.139-4.152c5.347-2.545,10.366-5.783,14.882-9.614
						c1.129-0.958,2.227-1.952,3.29-2.982c0.451-0.437,1.001-0.823,1.205-1.408c0.203-0.583,0.134-1.392,0.221-2.01
						c0.157-1.112,0.325-2.4,0.954-3.362c0.247-0.379,0.544-0.718,0.97-0.897c0.103-0.043,1.207-0.221,1.184-0.089
						c0,0.001-0.539,3.073-0.539,3.073s2.905,2.298,11.862,2.656c7.407,0.296,13.31-1.706,13.31-1.706L328.277,217.62z"/>
				</g>
				<g>
					<path style="fill:#F55571;" d="M328.035,234.505c0.296-2.278,0.982-3.873,1.041-5.92c0.08-2.786-1.419-3.226-1.419-3.226
						l-2.319,3.221c0,0-1.389,1.498-5.051,1.623c-3.69,0.126-6.007-2.643-7.587-3.914c-0.85-0.684-1.748-1.391-2.82-1.591
						c-1.127-0.21-2.253,0.171-3.314,0.651c-3.079-4.467-9.445-4.815-12.008-2.682c-1.968,1.638-10.598,8.542-15.442,11.346
						c-4.181,2.421-6.961,3.484-11.799,4.753c-7.953,2.087-10.189,4.436-10.477,9.857c-0.066,1.23,2.692,4.101,6.239,4.106
						c3.547,0.005,12.641,0.017,18.514,0.025c0,0,27.677,0.037,35.868,0.048c6.368,0.008,10.49-0.739,11.094-4.833
						C328.569,236.773,327.604,237.82,328.035,234.505z"/>
					
						<path style="fill:none;stroke:#303030;stroke-width:1.5;stroke-linecap:round;stroke-linejoin:round;stroke-miterlimit:10;" d="
						M285.748,241.262c-2.399-3.098-7.527-6.039-12.048-4.537"/>
					
						<path style="fill:none;stroke:#303030;stroke-width:1.5;stroke-linecap:round;stroke-linejoin:round;stroke-miterlimit:10;" d="
						M281.349,232.616c2.149,1.178,3.353,2.679,4.808,5.101"/>
					
						<path style="fill:none;stroke:#303030;stroke-width:1.5;stroke-linecap:round;stroke-linejoin:round;stroke-miterlimit:10;" d="
						M279.115,234.013c2.766-0.116,6.679,0.686,13.282,1.808"/>
					
						<path style="fill:none;stroke:#303030;stroke-width:1.5;stroke-linecap:round;stroke-linejoin:round;stroke-miterlimit:10;" d="
						M286.808,228.981c2.149,1.178,3.165,2.37,4.62,4.792"/>
					
						<path style="fill:none;stroke:#303030;stroke-width:1.5;stroke-linecap:round;stroke-linejoin:round;stroke-miterlimit:10;" d="
						M284.575,230.378c2.766-0.116,6.679,0.686,13.282,1.808"/>
					
						<path style="fill:none;stroke:#303030;stroke-width:1.5;stroke-linecap:round;stroke-linejoin:round;stroke-miterlimit:10;" d="
						M292.152,224.762c2.149,1.178,3.468,3.263,4.923,5.684"/>
					
						<path style="fill:none;stroke:#303030;stroke-width:1.5;stroke-linecap:round;stroke-linejoin:round;stroke-miterlimit:10;" d="
						M290.034,226.742c2.766-0.116,6.678,0.686,13.282,1.808"/>
					
						<path style="fill:none;stroke:#303030;stroke-width:1.5;stroke-linecap:round;stroke-linejoin:round;stroke-miterlimit:10;" d="
						M327.643,235.227c-0.621,0.872-1.403,1.605-2.403,2.12c-2,1.028-4.407,1.236-6.553,0.566c-3.382-1.056-5.983-4.126-9.489-4.637
						c-2.55-0.372-5.072,0.696-7.389,1.825c-4.28,2.087-10.996,5.984-11.863,7.308c-0.867,1.324-1.578,5.467-2.264,9.46"/>
					
						<path style="fill:#FFFFFF;stroke:#303030;stroke-width:1.5;stroke-linecap:round;stroke-linejoin:round;stroke-miterlimit:10;" d="
						M259.262,256.837c3.152,0.854,20.574,0.757,20.574,0.757s28.974,0.039,35.602,0.047c6.628,0.009,10.156-0.197,11.848-2.534
						c0.998-1.378,1.55-3.594,1.268-7.138c-2.757,2.426-2.054,3.116-13.378,3.101c-11.324-0.015-38.961,0.036-44.964-0.06
						c-4.181-0.066-10.679,0.487-13.373-2.386C255.848,249.942,254.456,255.534,259.262,256.837z"/>
				</g>
				<g>
					<path style="fill:#00826F;" d="M363.869,184.497l31.348,29.985v40.172c-21.617-2.642-30.159-5.609-35.256-9.522
						c-10.463-8.031-17.334-25.557-19.319-30.053c-2.761-6.253-5.365-12.843-5.365-12.843c-0.348,1.088-0.513,3.07-2.228,3.932
						c-6.96,3.499-23.059,1.192-28.144-5.02c-2.797-3.417-1.415-4.917-0.412-9.5s2.531-18.942,5.806-25.57
						c3.274-6.628,10.023-12.099,17.345-11.11c7.322,0.989,14.309,5.622,19.439,11.11
						C352.211,171.565,363.869,184.497,363.869,184.497z"/>
					<path style="fill:#303030;" d="M304.904,201.148l-0.926,6.454c5.084,6.212,20.085,8.315,27.045,4.817l2.025-6.251
						C326.088,209.666,309.988,207.36,304.904,201.148z"/>
				</g>
				<path style="fill:none;stroke:#303030;stroke-width:1.5;stroke-linecap:round;stroke-linejoin:round;stroke-miterlimit:10;" d="
					M338.184,185.312c0,0,0,10.08-2.908,16.924"/>
			</g>
			<g id="Leg_00000055700371891357867480000006381212866745631361_">
				<g>
					<path style="fill:#FFC4B0;" d="M324.014,245.853c-0.824-22.785,5.887-29.263,19.396-29.316
						c16.181-0.064,64.278,4.029,64.278,4.029h21.005c1.186,14.11,0.174,32.098-14.59,35.746
						c-8.186,2.022-18.537,0.327-34.738-3.648c-16.201-3.975-25.488-6.253-25.488-6.253c4.059,14.458-0.565,26.632-1.97,41.859
						c-1.486,16.105-1.61,21.192-1.142,29.016c0.223,3.72-0.5,9.498-5.407,12.395c-0.704,0.416-1.521,0.588-2.322,0.75
						c-17.462,3.537-33.555,3.898-51.37,4.157c-1.145,0.017-5.871-0.486-6.113-1.605c-0.12-0.556,0.879-3.146,1.183-3.626
						c1.999-3.153,5.303-2.955,9.203-4.324c5.63-1.977,9.99-4.305,15.188-7.233c4.37-2.462,6.418-2.949,10.931-6.456
						c2.478-1.926,4.794-5.366,4.84-15.154C326.958,283.79,324.655,263.585,324.014,245.853z"/>
				</g>
				<g>
					<path style="fill:#303030;" d="M351.162,296.863c1.962,0.364,2.38,2.248,1.733,6.61c-1.635,11.036-0.027,16.287,0.09,18.934
						c0.117,2.647,3.127,14.186-2.621,16.25c-5.747,2.064-17.234,1.011-28.837,1.23c-11.604,0.219-25.535-0.742-30.077-0.888
						c-7.017-0.226-7.017-7.959-3.548-11.01c3.469-3.051,12.342-3.445,19.508-8.133c7.166-4.689,14.095-8.643,15.942-11.962
						c1.847-3.319,1.605-4.624,1.876-7.952c0.115-1.406-0.444-3.284,1.671-3.752c0.138,0.811,0.238,1.647,0.303,2.505
						c0,0,1.328,3.749,11.799,3.763c10.126,0.014,11.966-3.025,11.966-3.025L351.162,296.863z"/>
					<g>
						<g>
							<path style="fill:#F55571;" d="M294.132,324.024c4.859-1.276,7.65-2.344,11.848-4.775
								c4.864-2.817,13.528-9.751,15.504-11.396c2.573-2.142,8.966-1.794,12.058,2.691c1.065-0.482,2.196-0.866,3.327-0.655
								c1.077,0.201,1.979,0.91,2.833,1.597c1.587,1.276,3.914,4.056,7.619,3.929c3.677-0.126,4.81-4.391,4.81-4.391l0.303-3.783
								c3.092,1.185,2.708,2.381,2.351,4.697c-0.314,2.033-0.126,5.633,0.159,8.573c0.323,3.341,0.639,6.937,0.684,12.742
								c-0.606,4.111-4.745,4.862-11.14,4.855c-8.226-0.01-36.018-0.042-36.018-0.042c-5.898-0.007-15.03-0.018-18.592-0.022
								c-3.561-0.004-6.331-2.887-6.266-4.122C283.901,328.48,286.146,326.121,294.132,324.024z"/>
						</g>
						
							<path style="fill:none;stroke:#303030;stroke-width:1.5;stroke-linecap:round;stroke-linejoin:round;stroke-miterlimit:10;" d="
							M312.641,326.526c-2.41-3.111-7.56-6.063-12.099-4.554"/>
						
							<path style="fill:none;stroke:#303030;stroke-width:1.5;stroke-linecap:round;stroke-linejoin:round;stroke-miterlimit:10;" d="
							M308.222,317.846c2.158,1.183,3.367,2.69,4.829,5.121"/>
						
							<path style="fill:none;stroke:#303030;stroke-width:1.5;stroke-linecap:round;stroke-linejoin:round;stroke-miterlimit:10;" d="
							M305.98,319.249c2.778-0.117,6.706,0.688,13.338,1.814"/>
						
							<path style="fill:none;stroke:#303030;stroke-width:1.5;stroke-linecap:round;stroke-linejoin:round;stroke-miterlimit:10;" d="
							M313.704,314.194c2.158,1.183,3.179,2.38,4.64,4.811"/>
						
							<path style="fill:none;stroke:#303030;stroke-width:1.5;stroke-linecap:round;stroke-linejoin:round;stroke-miterlimit:10;" d="
							M311.461,315.597c2.778-0.117,6.707,0.688,13.338,1.814"/>
						
							<path style="fill:none;stroke:#303030;stroke-width:1.5;stroke-linecap:round;stroke-linejoin:round;stroke-miterlimit:10;" d="
							M319.069,309.956c2.158,1.183,3.483,3.276,4.944,5.707"/>
						
							<path style="fill:none;stroke:#303030;stroke-width:1.5;stroke-linecap:round;stroke-linejoin:round;stroke-miterlimit:10;" d="
							M316.943,311.945c2.778-0.117,6.707,0.688,13.338,1.814"/>
						
							<path style="fill:none;stroke:#303030;stroke-width:1.5;stroke-linecap:round;stroke-linejoin:round;stroke-miterlimit:10;" d="
							M354.711,320.459c-0.623,0.876-1.409,1.612-2.413,2.129c-2.008,1.033-4.425,1.242-6.581,0.569
							c-3.396-1.06-6.009-4.142-9.529-4.655c-2.561-0.373-5.094,0.699-7.419,1.834c-4.298,2.097-11.041,6.01-11.911,7.341
							c-0.871,1.33-1.584,5.49-2.271,9.5"/>
						
							<path style="fill:#FFFFFF;stroke:#303030;stroke-width:1.5;stroke-linecap:round;stroke-linejoin:round;stroke-miterlimit:10;" d="
							M286.047,342.171c3.165,0.857,20.66,0.756,20.66,0.756s29.096,0.034,35.751,0.042c6.656,0.008,10.198-0.199,11.897-2.546
							c1.002-1.384,1.556-3.609,1.272-7.169c-2.768,2.437-2.062,3.13-13.434,3.116c-11.372-0.013-39.124,0.042-45.152-0.053
							c-4.198-0.066-10.724,0.491-13.43-2.394C282.617,335.248,281.22,340.864,286.047,342.171z"/>
					</g>
				</g>
				<path style="fill:#00826F;" d="M429.391,219.329l-55.588-3.416l-5.013-0.401c0,0-26.13-3.488-36.586,2.654
					c-6.621,3.889-10.145,13.888-9.691,22.043c0.454,8.154,0.489,22.797,0.261,28.247c-0.229,5.45-1.281,7.95,3.421,11.254
					c4.702,3.304,17.69,5.205,26.524,1.887c5.212-1.957,4.024-9.212,4.579-16.75c0.633-8.595,0.753-13.491,0.753-13.491
					s18.551,7.016,27.798,7.016c7.876,0,16.17-0.489,22.699-0.489C422.85,257.881,434.416,245.227,429.391,219.329z"/>
				<path style="fill:#303030;" d="M326.196,279.709l0.434,7.113c4.702,3.304,16.444,4.766,25.277,1.449l0.812-6.675
					C343.886,284.913,330.898,283.013,326.196,279.709z"/>
			</g>
			<path style="fill:#00826F;" d="M370.937,217.772c0.778-9.036,5.283-26.124,5.283-26.124h45.952c0,0,5.611,17.575,7.311,28.257
				L370.937,217.772z"/>
			<path style="fill:none;stroke:#303030;stroke-width:1.5;stroke-linecap:round;stroke-linejoin:round;stroke-miterlimit:10;" d="
				M408.006,219.122c-14.809-1.501-35.21-4.64-67.365-4.043"/>
			<path style="fill:none;stroke:#303030;stroke-width:1.5;stroke-linecap:round;stroke-linejoin:round;stroke-miterlimit:10;" d="
				M373.803,203.497c-1.038,4.384-1.859,7.965-2.014,12.255"/>
			<path style="fill:none;stroke:#303030;stroke-width:1.5;stroke-linecap:round;stroke-linejoin:round;stroke-miterlimit:10;" d="
				M352.295,233.715c2.93,5.483,4.889,11.484,5.757,17.64"/>
		</g>
		<g id="Chest_00000032644324049653483780000008945677773560362163_">
			
				<path id="Chest_00000168079035073379475720000002481229545551869360_" style="fill:#303030;stroke:#303030;stroke-width:1.5;stroke-linecap:round;stroke-linejoin:round;stroke-miterlimit:10;" d="
				M397.702,197.318c-13.362-0.938-19.316-2.941-21.994-4.667c-4.011-2.586-3.078-6.278-1.89-9.207
				c1.188-2.928-1.102-14.737-0.144-24.749c1.006-10.51,11.977-21.421,11.977-21.421l9.754-0.699c0,0-6.383,6.501,1.311,7.448
				c8.569,1.055,15.564-6.628,15.564-6.628s8.518,4.164,12.048,7.829c4.079,4.234,5.968,7.345,3.853,17.295
				c-2.115,9.95-5.144,21.007-3.969,24.456c1.175,3.449,1.756,7.218-2.258,8.882C417.94,197.52,411.064,198.255,397.702,197.318z"/>
			
				<path id="Chest_00000137816784926740481410000004564915730847023000_" style="fill:none;stroke:#00826F;stroke-width:1.5;stroke-linecap:round;stroke-linejoin:round;stroke-miterlimit:10;" d="
				M373.818,183.444c1.188-2.928-1.102-14.737-0.144-24.749c0.466-4.872,3.074-9.83,5.737-13.747"/>
		</g>
		<g id="Arm_with_book">
			<g>
				<g>
					
						<polygon style="fill:#FFFFFF;stroke:#303030;stroke-width:1.5;stroke-linecap:round;stroke-linejoin:round;stroke-miterlimit:10;" points="
						326.481,122.004 330.746,132.414 323.036,140.047 320.013,139.893 324.914,122.35 					"/>
					
						<polygon style="fill:#FFFFFF;stroke:#303030;stroke-width:1.5;stroke-linecap:round;stroke-linejoin:round;stroke-miterlimit:10;" points="
						338.061,125.172 323.036,140.047 355.262,152.661 					"/>
				</g>
				
					<path style="fill:#F55571;stroke:#303030;stroke-width:1.5;stroke-linecap:round;stroke-linejoin:round;stroke-miterlimit:10;" d="
					M347.297,169.45c6.824-3.795,13.649-7.59,20.473-11.385l-21.629-30.718c-6.824,3.795-13.649,7.59-20.473,11.385l-3.445-0.195
					l4.258-16.532l-2.104,0.464l-4.364,17.424l20.82,29.569L347.297,169.45z"/>
				
					<line style="fill:#FFFFFF;stroke:#303030;stroke-width:1.5;stroke-linecap:round;stroke-linejoin:round;stroke-miterlimit:10;" x1="325.668" y1="138.732" x2="347.082" y2="169.742"/>
				
					<polygon style="fill:none;stroke:#FFFFFF;stroke-width:1.5;stroke-linecap:round;stroke-linejoin:round;stroke-miterlimit:10;" points="
					332.341,141.796 346.325,134.02 361.098,155.002 347.114,162.778 				"/>
			</g>
			<g>
				<g id="Arm_00000152976547292549889550000002628817391827154319_">
					<path style="fill:#FFC4B0;" d="M345.089,153.337c1.162-0.361,1.798,0.046,2.421,0.803c0.079,0.096,0.24,0.346,0.402,0.639
						c0.308-0.329,0.764-0.572,1.031-0.648c0.8-0.227,1.289-0.076,1.785,0.391c1.084,1.021,1.812,2.629,2.601,3.867
						c1.158,1.816,2.399,3.579,3.719,5.28c0.15,0.194,0.595,0.637,1.21,0.404c0.787-0.299,2.005-1.025,2.839-1.428
						c0,0,1.654,3.538,2.188,4.788c0.435,1.019,0.763,3.222,1.688,3.892c6.54,4.546,22.941,9.962,22.945,9.952l5.535-9.95
						c3.307,5.618,8.449,11.73,18.345,13.973c0,0-2.769,4.651-6.41,9.896c-2.37,3.414-5.046,6.629-8.549,7.856
						c-3.99,1.398-6.902,0.588-13.037-2.454c-9.002-4.463-17.441-9.998-25.653-15.789c-4.232-2.984-8.185-6.425-11.484-10.428
						c-1.665-2.021-3.16-4.187-4.403-6.494c-0.878-1.63-2.486-3.885-2.317-5.841c0.091-1.052,0.563-1.527,1.578-1.815
						c-0.325-1.24-0.335-1.723-0.016-2.629c0.319-0.906,1.438-1.315,2.177-1.318C343.265,154.257,344.614,153.485,345.089,153.337z"
						/>
					<g>
						
							<path style="fill:none;stroke:#303030;stroke-width:1.5;stroke-linecap:round;stroke-linejoin:round;stroke-miterlimit:10;" d="
							M393.453,171.327c5.103,9.223,12.798,12.773,18.828,14.083"/>
					</g>
					
						<path style="fill:none;stroke:#00826F;stroke-width:1.5;stroke-linecap:round;stroke-linejoin:round;stroke-miterlimit:10;" d="
						M393.453,171.327c10.492-21.439,23.6-27.515,29.487-22.487c7.662,6.546,3.689,15.168-10.659,36.57"/>
					
						<path style="fill:none;stroke:#00826F;stroke-width:1.5;stroke-linecap:round;stroke-linejoin:round;stroke-miterlimit:10;" d="
						M410.58,139.49c4.322,2.677,9.509,6.62,12.359,9.351"/>
					<path style="fill:#303030;" d="M366.408,172.246c0.458,2.732-4.261,8.914-10.574,10.863l4.262,3.066
						c5.808-1.642,11.043-7.726,10.547-11.673C369.08,173.733,367.629,172.976,366.408,172.246z"/>
					
						<path style="fill:none;stroke:#303030;stroke-width:1.5;stroke-linecap:round;stroke-linejoin:round;stroke-miterlimit:10;" d="
						M393.894,184.929c-1.782-2.32-4.212-3.2-5.977-3.651"/>
				</g>
				<path style="fill:none;stroke:#303030;stroke-width:1.5;stroke-linecap:round;stroke-linejoin:round;stroke-miterlimit:10;" d="
					M348.867,154.173c-0.61,0.157-1.021,0.832-1.064,1.46c-0.043,0.629,0.037,1.196,0.27,1.782c1.21,3.053,2.772,5.965,4.646,8.662"
					/>
				<path style="fill:none;stroke:#303030;stroke-width:1.5;stroke-linecap:round;stroke-linejoin:round;stroke-miterlimit:10;" d="
					M343.684,156.286c0.989,3.963,2.857,7.467,5.814,11.357"/>
				<path style="fill:none;stroke:#303030;stroke-width:1.5;stroke-linecap:round;stroke-linejoin:round;stroke-miterlimit:10;" d="
					M341.418,159.722c1.125,3.408,3.37,7.26,5.664,10.02"/>
			</g>
		</g>
	</g>
</g>
<g id="Character_2">
	<g id="Character_00000026865291982714431330000014962439588817830318_">
		<g id="Legs_00000101809225097405517570000005705603955849509007_">
			<g id="Leg_00000062906999979830347340000014780889327502426546_">
				<path style="fill:#FFC4B0;" d="M85.609,268.689c0,34.956,16.456,40.336,25.966,41.551c9.51,1.215,21.659,7.533,34.781,10.448
					s21.988,4.288,21.988,4.288s-13.103,9.585-20.322,22.757c-4.331,7.902-15.988,25.386-22.829,35.019
					c-2.958,4.165-5.282,6.591-5.282,6.591l21.574,7.211c0,0,27.835-28.239,40.894-43.061c13.06-14.822,20.233-24.973,22.663-31.047
					s5.948-21.438-10.818-30.915c-16.766-9.477-52.971-22.841-52.971-22.841H85.609z"/>
				<g>
					
						<path style="fill:#303030;stroke:#303030;stroke-width:1.5;stroke-linecap:round;stroke-linejoin:round;stroke-miterlimit:10;" d="
						M110.289,311.493c0,0,16.129,4.836,20.623,6.377c7.337,2.516,28.847,7.277,34.372,7.478
						c-6.383,5.177-17.538,16.792-27.935,39.812c0,0,8.05,8.544,19.995,15.374c13.552-13.258,34.221-35.367,41.452-45.611
						c7.231-10.245,10.217-19.387,9.011-26.618c-1.205-7.232-5.13-15.527-23.905-24.054c-16.951-7.699-51.598-20.113-51.598-20.113
						v-5.424H56.273C56.273,258.714,47.773,294.364,110.289,311.493z"/>
					
						<path style="fill:#F55571;stroke:#303030;stroke-width:1.5;stroke-linecap:round;stroke-linejoin:round;stroke-miterlimit:10;" d="
						M139.19,358.091c0,0,2.031,6.814,8.626,12.163c6.594,5.349,14.276,6.155,14.276,6.155l-5.609,5.349
						c0,0-4.972,0.306-12.885-5.98c-6.554-5.206-7.433-10.433-7.433-10.433L139.19,358.091z"/>
					<g>
						
							<path style="fill:none;stroke:#00826F;stroke-width:1.5;stroke-linecap:round;stroke-linejoin:round;stroke-miterlimit:10;" d="
							M182.942,312.275c-7.809,3.51-12.807,8.458-17.658,13.073"/>
						
							<path style="fill:none;stroke:#00826F;stroke-width:1.5;stroke-linecap:round;stroke-linejoin:round;stroke-miterlimit:10;" d="
							M175.912,316.241c0,5.209-8.954,13.475-14.74,20.878c-6.243,7.989-15.469,22.561-19.686,31.781"/>
						
							<path style="fill:none;stroke:#00826F;stroke-width:1.5;stroke-linecap:round;stroke-linejoin:round;stroke-miterlimit:10;" d="
							M102.621,294.771c18.92,2.931,34.684,6.105,51.413,9.749c11.25,2.45,23.723,5.997,23.723,10.502"/>
					</g>
				</g>
				<g>
					<path style="fill:#00826F;" d="M121.296,387.142c5.909-1.532,9.922-1.593,12.057-0.868c1.394,0.473,2.484,2,2.484,2
						s3.626-2.13,6.171-0.344c4.354,3.055,1.651,3.693,4.456,5.724c3.064,2.219,11.523,4.662,11.523,9.367
						c-10.724-3.359-17.332-7.402-24.991-5.263c-7.66,2.139-13.569,2.676-22.323,0L121.296,387.142z"/>
					
						<path style="fill:#FFFFFF;stroke:#303030;stroke-width:1.5;stroke-linecap:round;stroke-linejoin:round;stroke-miterlimit:10;" d="
						M110.672,397.757c-3.108,2.149-4.158,5.75-4.158,5.75s4.268,0,8.316,1.532c4.049,1.532,7.66,2.298,10.724,0
						c3.064-2.298,4.049-4.3,13.897-3.791c9.848,0.509,16.444,5.46,17.279,7.99c1.232,3.732-0.975,6.087-4.039,8.495
						c5.69-4.487,6.865-9.151,6.347-12.256c-0.519-3.105-4.863-7.72-13.233-9.453c-4.034-0.835-8.758-1.387-13.451,0.055
						c-5.079,1.561-8.371,3.611-10.87,3.488C117.636,399.378,114.608,398.018,110.672,397.757z"/>
					
						<path style="fill:#303030;stroke:#303030;stroke-width:1.5;stroke-linecap:round;stroke-linejoin:round;stroke-miterlimit:10;" d="
						M106.514,403.507c0,0,4.268,0,8.316,1.532c4.049,1.532,7.66,2.298,10.724,0c3.064-2.298,4.049-4.3,13.897-3.791
						c9.848,0.509,16.566,5.423,17.279,7.99c1.256,4.519-0.975,6.087-4.039,8.495c-4.481,2.66-14.151,2.904-19.642,0.943
						c-7.288-2.604-12.39-3.393-17.949-5.342C109.542,411.383,105.456,406.459,106.514,403.507z"/>
					
						<path style="fill:none;stroke:#303030;stroke-width:1.5;stroke-linecap:round;stroke-linejoin:round;stroke-miterlimit:10;" d="
						M135.837,388.273c2.199,2.685,4.303,5.883,7.468,7.306"/>
					
						<path style="fill:none;stroke:#303030;stroke-width:1.5;stroke-linecap:round;stroke-linejoin:round;stroke-miterlimit:10;" d="
						M117.025,391.925c2.631,1.728,4.036,3.963,4.271,7.139"/>
				</g>
			</g>
			<g id="Leg_00000144333437929827242750000017215671961422134954_">
				<path style="fill:#FFC4B0;" d="M54.986,268.689c-6.008,22.433,0.169,32.602,4.876,38.139
					c3.286,3.866,16.442,15.423,19.524,19.137c3.082,3.715,8.147,13.536,17.285,25.274c8.33,10.699,52.027,42.477,60.521,52.538
					l15.139-12.295c0,0-36.361-45.407-41.755-52.647c-5.394-7.24-14.334-14.588-17.417-19.036c-3.082-4.449-4.507-9.678-8.397-17.87
					c-5.659-11.918-13.727-33.24-13.727-33.24H54.986z"/>
				<path style="fill:none;stroke:#303030;stroke-width:1.5;stroke-linecap:round;stroke-linejoin:round;stroke-miterlimit:10;" d="
					M96.671,351.24c8.33,10.699,52.027,42.477,60.521,52.538"/>
				<g>
					<path style="fill:#00826F;" d="M151.112,391.883c-2.914,1.855-1.992,6.422-1.135,7.767c0.856,1.345,3.249,2.531,5.079,5.209
						c1.831,2.678,1.562,7.007,4.399,10.178c1.776-5.365,4.166-9.256,9.23-13.866c6.081-5.536,13.265-5.429,13.265-5.429
						c-3.547-3.098-5.287-3.477-7.444-5.417c-2.8-2.519-3.377-6.124-5.925-7.653c-2.548-1.528-8.086-1.436-8.338,0.741
						c0,0-2.273-1.479-6.795,2.339C149.52,389.069,151.112,391.883,151.112,391.883z"/>
					
						<path style="fill:#FFFFFF;stroke:#303030;stroke-width:1.5;stroke-linecap:round;stroke-linejoin:round;stroke-miterlimit:10;" d="
						M159.455,415.037c1.776-5.365,4.166-9.256,9.23-13.866c6.081-5.536,13.265-5.429,13.265-5.429
						c2.135,1.658,3.443,3.189,4.385,4.665c0,0-7.185-0.107-13.265,5.429c-5.064,4.61-7.454,8.501-9.23,13.866
						C162.433,418.831,160.979,417.369,159.455,415.037z"/>
					
						<path style="fill:#303030;stroke:#303030;stroke-width:1.5;stroke-linecap:round;stroke-linejoin:round;stroke-miterlimit:10;" d="
						M163.84,419.702c1.776-5.365,4.166-9.256,9.23-13.866c6.081-5.536,13.265-5.429,13.265-5.429
						c0.998,0.218-2.763,6.441-9.241,12.291C170.616,418.548,164.212,420.889,163.84,419.702z"/>
					
						<path style="fill:none;stroke:#303030;stroke-width:1.5;stroke-linecap:round;stroke-linejoin:round;stroke-miterlimit:10;" d="
						M161.104,385.549c2.495,4.737,7.149,8.282,12.379,9.427"/>
					
						<path style="fill:none;stroke:#303030;stroke-width:1.5;stroke-linecap:round;stroke-linejoin:round;stroke-miterlimit:10;" d="
						M153.201,392.88c3.876,3.587,8.51,7.095,7.933,12.997"/>
					
						<path style="fill:none;stroke:#FFFFFF;stroke-width:1.5;stroke-linecap:round;stroke-linejoin:round;stroke-miterlimit:10;" d="
						M171.382,392.003c-5.322,2.113-9.755,6.325-12.6,11.002"/>
					
						<path style="fill:none;stroke:#FFFFFF;stroke-width:1.5;stroke-linecap:round;stroke-linejoin:round;stroke-miterlimit:10;" d="
						M168.709,389.343c-5.322,2.113-9.755,6.325-12.6,11.002"/>
					
						<path style="fill:none;stroke:#FFFFFF;stroke-width:1.5;stroke-linecap:round;stroke-linejoin:round;stroke-miterlimit:10;" d="
						M165.531,386.102c-5.322,2.113-9.755,6.325-12.6,11.002"/>
				</g>
				<g>
					<path style="fill:#303030;" d="M132.306,338.25c-5.723-6.227-14.163-15.658-16.976-18.872
						c-2.812-3.214-5.042-7.885-5.042-7.885l-9.69-23.579c16.711-6.228,25.731-16.846,31.708-29.201H56.273
						c-5.223,14.966-5.995,29.398-2.766,39.609c2.962,9.368,10.361,17.484,14.78,21.301c4.419,3.817,6.113,8.33,10.345,13.972
						c5.446,7.261,9.957,12.188,16.743,18.933c8.275,8.227,36.184,30.223,36.184,30.223c8.509-2.323,15.52-9.082,20.178-17.826
						C151.737,364.926,138.029,344.477,132.306,338.25z"/>
					<g>
						
							<path style="fill:none;stroke:#00826F;stroke-width:1.5;stroke-linecap:round;stroke-linejoin:round;stroke-miterlimit:10;" d="
							M59.974,259.221c-0.698,7.05-1.297,14.11-1.798,21.177c-0.183,2.587-0.353,5.179-0.307,7.772
							c0.215,11.952,4.626,24.104,13.72,34.412"/>
						
							<path style="fill:none;stroke:#00826F;stroke-width:1.5;stroke-linecap:round;stroke-linejoin:round;stroke-miterlimit:10;" d="
							M77.187,276.328c3.561,0.089,12.172,2.306,19.874,9.495c2.98,2.781,4.76,6.594,6.485,10.287
							c2.378,5.091,4.607,10.252,6.683,15.474"/>
					</g>
					
						<path style="fill:#F55571;stroke:#303030;stroke-width:1.5;stroke-linecap:round;stroke-linejoin:round;stroke-miterlimit:10;" d="
						M125.944,379.157l6.032,4.726c0,0,6.607-1.868,12.323-7.254c5.715-5.385,8.137-12.42,8.137-12.42l-4.729-6.949
						c0,0-0.441,6.155-7.586,13.311C132.978,377.728,125.944,379.157,125.944,379.157z"/>
				</g>
			</g>
		</g>
		<g id="Head_00000000197442835354078940000007200155706040073622_">
			<path style="fill:#D48983;" d="M78.223,141.716c-0.562,9.976,7.401,21.347,17.846,21.936
				c10.445,0.589,19.416-9.828,19.978-19.804c0.562-9.976-7.449-18.54-17.894-19.129C87.709,124.13,78.786,131.74,78.223,141.716z"
				/>
			<path style="fill:#FFCCCC;" d="M85.064,159.586c-0.037,2.169,0.677,4.21,2.129,5.793l-0.773,12.06l-5.753-0.761
				c1.703,1.736,7.806,17.288,17.946,17.46c11.216,0.191,11.696-9.318,12.772-15.881l-6.091-0.394l-0.221-6.255
				c1.231,0.036,5.652-0.746,7.945-2.886c2.293-2.14,3.966-4.688,4.469-9.367c0.477-4.436-0.966-8.363-1.187-9.897
				c-0.222-1.534,0.647-2.786,0.619-6.377c-0.041-5.269-2.97-7.137-2.97-7.137c-2.588-3.877-10.03-6.217-18.593-3.717
				c-5.583,2.409-7.873,5.127-8.76,8.387c1.324,2.816,2.089,3.328,1.781,7.294c-0.172,2.738-0.78,2.814-1.787,1.499
				c-1.35-1.705-3.424-3.194-5.662-3.289c-2.915-0.124-4.933,1.494-5.404,3.589c-0.558,2.483,1.041,4.372,3.034,5.292
				c1.993,0.921,4.672,1.027,6.585-0.107C85.144,154.892,85.101,157.417,85.064,159.586z"/>
			<path style="fill:#303030;" d="M86.597,140.614l-6.996-4.341c0,0-0.281-6.741,4.213-10.323c1.896-1.512,4.226-2.307,6.648-2.656
				c2.373-0.342,4.967-0.2,7.089-1.436c1.211-0.705,2.168-1.92,2.22-3.279c1.366,0.769,2.424,2.03,2.912,3.472
				c1.119-1.041,2.546-1.815,4.096-2.015c3.252-0.42,7.305,1.909,6.292,5.471c1.858-0.507,5.051-0.285,7.19,2.272
				c1.087,1.299,1.547,3.096,1.486,4.754c-0.849-1.577-2.384-2.977-4.701-2.868c4.717,2.643,4.288,8.598,0.624,10.038
				c-2.035,0.8-4.523-0.281-5.834-0.903c-1.311-0.622-2.503-1.448-3.754-2.173c-3.105-1.799-6.612-2.979-10.216-3.321
				C97.122,133.236,89.774,132.996,86.597,140.614z"/>
			<g>
				<path style="fill:#303030;" d="M105.073,171.608c-4.668-0.191-9.92-1.285-13.035-3.197c0.831,1.997,4.355,5.194,13.151,6.482
					L105.073,171.608z"/>
				<g>
					<g>
						<path style="fill:#FFFFFF;" d="M106.558,147.476c0.484-1.274,1.787-1.857,3.2-1.894c1.412-0.037,3.411,0.406,3.675,2.392
							C112.806,149.926,108.313,150.283,106.558,147.476z"/>
						<path style="fill:#303030;" d="M111.479,149.12c-0.696,0.656-1.82,0.601-2.512-0.122c-0.691-0.723-0.688-1.842,0.008-2.498
							c0.696-0.656,1.82-0.601,2.511,0.122C112.179,147.346,112.175,148.464,111.479,149.12z"/>
						<polygon style="fill:#FFFFFF;" points="108.876,146.41 110.228,147.81 108.307,147.229 						"/>
						
							<path style="fill:none;stroke:#303030;stroke-width:1.5;stroke-linecap:round;stroke-linejoin:round;stroke-miterlimit:10;" d="
							M113.68,147.619c-0.799-1.486-2.39-1.917-3.802-1.88c-1.413,0.037-2.896,0.844-3.32,1.737"/>
					</g>
					
						<path style="fill:none;stroke:#303030;stroke-width:1.5;stroke-linecap:round;stroke-linejoin:round;stroke-miterlimit:10;" d="
						M108.005,141.341c2.174-0.369,5.442,0.315,6.719,1.886"/>
				</g>
				<g>
					<g>
						<path style="fill:#FFFFFF;" d="M92.409,146.526c0.517-1.261,1.835-1.809,3.249-1.81c1.413,0,3.399,0.495,3.612,2.488
							C98.591,149.139,94.091,149.378,92.409,146.526z"/>
						<path style="fill:#303030;" d="M97.286,148.199c-0.699,0.652-1.823,0.592-2.511-0.135c-0.688-0.727-0.679-1.845,0.02-2.497
							c0.699-0.652,1.823-0.592,2.511,0.135C97.994,146.428,97.985,147.547,97.286,148.199z"/>
						<polygon style="fill:#FFFFFF;" points="94.696,145.477 96.04,146.883 94.122,146.293 						"/>
						
							<path style="fill:none;stroke:#303030;stroke-width:1.5;stroke-linecap:round;stroke-linejoin:round;stroke-miterlimit:10;" d="
							M99.525,146.856c-0.76-1.506-2.339-1.979-3.752-1.979c-1.413,0-2.917,0.768-3.364,1.649"/>
					</g>
					
						<path style="fill:none;stroke:#303030;stroke-width:1.5;stroke-linecap:round;stroke-linejoin:round;stroke-miterlimit:10;" d="
						M90.536,141.776c1.742-1.585,5.042-2.264,7.449-1.464"/>
				</g>
				<path style="fill:none;stroke:#303030;stroke-width:1.5;stroke-linecap:round;stroke-linejoin:round;stroke-miterlimit:10;" d="
					M102.928,143.484c0.485,3.676,1.875,6.012,2.692,7.873c0.626,1.427,0.624,3.867-2.901,3.914"/>
				<g>
					
						<path style="fill:none;stroke:#303030;stroke-width:1.5;stroke-linecap:round;stroke-linejoin:round;stroke-miterlimit:10;" d="
						M78.629,149.728c0.529-0.367,1.826-0.645,3.131-0.289c1.306,0.356,2.385,1.384,2.762,2.63"/>
					
						<path style="fill:none;stroke:#303030;stroke-width:1.5;stroke-linecap:round;stroke-linejoin:round;stroke-miterlimit:10;" d="
						M80.854,151.155c0.39-0.268,1.759-0.947,3.089-0.222"/>
					<path style="fill:#303030;" d="M82.214,155.721c-0.067,0.928-0.873,1.625-1.8,1.558c-0.928-0.067-1.625-0.873-1.559-1.8
						c0.067-0.928,0.873-1.625,1.8-1.558C81.583,153.988,82.28,154.794,82.214,155.721z"/>
				</g>
			</g>
			<path style="fill:none;stroke:#303030;stroke-width:1.5;stroke-linecap:round;stroke-linejoin:round;stroke-miterlimit:10;" d="
				M105.942,159.697c-2.819,0.943-6.783-0.053-8.24-1.738"/>
		</g>
		<g id="Arm_00000062157801697831392820000010291741873876684975_">
			<path style="fill:#FFCCCC;" d="M147.363,199.518c-3.911-10.585-10.467-10.269-15.68-11.849v42.815l7.956,26.982
				c0,0,22.228-0.446,21.568-4.696C160.312,247.01,151.274,210.103,147.363,199.518z"/>
			<path style="fill:#F55571;" d="M133.84,185.565c8.683,3.087,13.186,4.341,17.068,20.173c3.882,15.832,10.208,39.717,11.16,41.672
				c0.952,1.955,0.952,5.215-1.533,6.302c-2.484,1.087-21.195,4.658-21.195,4.658l-9.081-27.795l-0.506-46.447L133.84,185.565z"/>
		</g>
		<g id="Chest_00000004506499402470931750000006553688338076471169_">
			
				<path id="Chest_00000046333885749576325380000006442238170639141768_" style="fill:#FFFFFF;stroke:#303030;stroke-width:1.5;stroke-linecap:round;stroke-linejoin:round;stroke-miterlimit:10;" d="
				M98.614,192.699c-4.409-2.777-10.337-7.756-14.67-15.537c0,0-16.151,2.169-29.059,7.569c0,0-1.4,10.293,0.496,25.595
				c1.526,12.317,2.88,18.904,2.213,28.233c-0.368,5.152-2.449,17.142-3.207,29.754c1.621,4.066,15.202,17.833,55.535,13.023
				c13.465-1.606,24.066-8.032,26.981-12.763c0.831-5.791-1.065-25.109-1.282-38.451c-0.217-13.343,1.274-27.913-3.309-43.75
				c-5.651-1.782-25.622-8.132-25.622-8.132C105.653,181.628,102.328,189.831,98.614,192.699z"/>
			<g>
				<path style="fill:#F55571;" d="M85.582,177.824c-3.322,3.343-5.048,10.797-3.364,31.273c1.291,15.703,2.372,41.133,2.372,49.38
					c0,8.468,0.401,23.865,0.401,23.865s-24.222,7.206-30.505,13.409c1.063,5.362,2.466,10.848,6.436,16.049
					c-10.661,0.072-14.824-1.989-16.418-7.798s3.011-17.145,6.377-34.327c3.365-17.182,5.595-30.98,3.506-47.108
					c-2.089-16.128-0.796-31.163,1.915-39.665l29.201-9.284L85.582,177.824z"/>
				<path style="fill:#303030;" d="M60.922,311.8c-3.97-5.201-5.373-10.687-6.436-16.049c-1.687,1.666-3.097,3.469-3.96,5.363
					C46.453,310.061,60.919,311.8,60.922,311.8z"/>
				<path style="fill:#303030;" d="M86.855,170.656c-2.911,0-5.279,0.995-9.525,3.041c-4.603,2.218-12.758,6.61-12.758,6.61
					s7.362,0.452,10.156,1.599c4.123,1.693,3.401,7.571,3.468,10.303c0.183,7.483,2.823,8.426,3.851,14.624
					c0,0,0.149-13.968,1.234-19.165c1.199-5.745,3.14-10.23,3.14-10.23L86.855,170.656z"/>
			</g>
			<g>
				<path style="fill:#F55571;" d="M105.294,175.782l28.546,9.783c0,0,2.206,4.697,3.034,15.004c0.276,3.436,0.4,7.495,0.237,12.212
					c-0.649,18.866-0.448,28.479,0.464,37.689c0.912,9.21,2.162,19.144,2.162,19.144s-5.902,8.544-12.622,10.095
					c0,0-8.757-14.425-9.533-37.548c-0.802-23.906-1.58-33.914-2.226-46.445c-0.646-12.531-10.063-17.852-10.063-17.852V175.782z"/>
				<path style="fill:none;stroke:#303030;stroke-width:1.5;stroke-linecap:round;stroke-linejoin:round;stroke-miterlimit:10;" d="
					M136.662,198.305c0.417,3.874,0.649,8.679,0.45,14.476c-0.649,18.866-0.448,28.479,0.464,37.689
					c0.912,9.21,2.162,19.144,2.162,19.144"/>
				<path style="fill:#303030;" d="M115.825,204.204c1.427-4.891,2.801-7.615,3.225-10.478c0.424-2.864-0.505-8.01,0.497-9.597
					c1.481-2.344,7.373-0.936,7.373-0.936s-6.615-4.69-11.697-7.631c-3.856-2.233-10.151-3.954-10.151-3.954l0.221,6.255
					C105.294,177.863,114.88,187.001,115.825,204.204z"/>
			</g>
		</g>
		<g id="Arms_With_Laptop">
			<g id="Arm_00000145779434902518865840000017694976998748680066_">
				<path style="fill:#FFCCCC;" d="M148.312,288.852c0,0,8.68-14.015,10.635-18.905c1.956-4.89,3.151-12.788,2.26-17.178
					c-2.077-10.222-19.921-4.228-21.568,4.696c-1.647,8.924-6.119,24.828-6.119,24.828L148.312,288.852z"/>
				<g>
					<path style="fill:#F55571;" d="M139.16,259.888l0.479-2.423c0,0,4.365-5.148,11.609-5.148s10.26,4.346,10.26,4.346
						s-0.121,2.932-0.352,4.43c2.165-0.906,4.565-2.788,3.456-5.424c-1.674-3.983-0.043-4.816-3.105-7.519
						c-1.926-1.7-8.714-4.393-15.958-0.741C138.305,251.062,136.633,254.903,139.16,259.888z"/>
					
						<path style="fill:none;stroke:#303030;stroke-width:1.5;stroke-linecap:round;stroke-linejoin:round;stroke-miterlimit:10;" d="
						M161.507,248.151c-1.926-1.7-8.714-4.393-15.958-0.741c-7.244,3.652-8.915,7.493-6.389,12.478"/>
				</g>
			</g>
			<g id="Laptop_2">
				<path style="fill:#303030;" d="M69.929,294.036c-2.828,0-4.15-2.168-7.062-5.61c-2.913-3.442-6.884-8.208-6.884-8.208v-1.876
					h50.707l12.312,13.819v1.876H69.929z"/>
				<path style="fill:#00826F;" d="M69.929,292.16c-2.828,0-4.15-2.168-7.062-5.61c-2.913-3.442-6.884-8.208-6.884-8.208h50.707
					l12.312,13.819H69.929z"/>
			</g>
			<g id="Arm_00000000912425145863414390000003130936482551966866_">
				<path style="fill:#FFCCCC;" d="M92.571,276.531c-4.348-2.95-15.428-3.484-18.531-4.462
					c-6.138-1.934-18.246-19.282-20.555-22.998l0,0l9.375-26.504c0,0,0.097-26.366-6.877-36.905
					c-5.193,2.078-9.201,1.633-14.693,14.695s-12.792,38.742-14.337,45.124c-1.545,6.383-1.177,9.101,1.572,12.995
					c2.749,3.894,5.165,6.929,16.341,14.686c8.315,5.771,14.294,9.669,21.104,11.642c6.81,1.973,13.316,0.167,16.887,2.663
					c3.571,2.496,8.318,1.666,13.597,0.461C101.732,286.723,96.919,279.481,92.571,276.531z"/>
				<g>
					<path style="fill:#F55571;" d="M56.302,182.902c-10.077,2.76-12.849,7.273-16.278,16.21
						c-3.429,8.937-10.795,32.432-12.827,36.877c-2.032,4.445-5.676,8.224-3.302,10.541c-2.159,2.413-0.508,7.048,0.381,8.604
						c0.889,1.556,2.54,5.931,3.937,7.236c1.397,1.305,3.78,0.458,3.78,0.458l-2.129-2.327c0,0,2.237-6.858,8.294-10.795
						c6.057-3.937,12.771-2.971,15.327-0.635l0.902,1.392c0,0,4.024,0.401,1.596-4.814c0,0,6.393-17.194,8.044-22.57
						c0.655-2.134,2.123-8.888,1.404-16.244C64.339,195.657,62.735,182.918,56.302,182.902z"/>
					
						<path style="fill:none;stroke:#303030;stroke-width:1.5;stroke-linecap:round;stroke-linejoin:round;stroke-miterlimit:10;" d="
						M54.387,250.463c0,0,4.024,0.401,1.596-4.814c0,0,6.393-17.194,8.044-22.57c0.655-2.134,2.123-8.888,1.404-16.244"/>
					
						<path style="fill:none;stroke:#303030;stroke-width:1.5;stroke-linecap:round;stroke-linejoin:round;stroke-miterlimit:10;" d="
						M25.316,244.838c4.444-3.826,10.243-6.045,16.106-6.162c4.657-0.093,12.063,2.029,14.561,6.973"/>
					
						<path style="fill:none;stroke:#303030;stroke-width:1.5;stroke-linecap:round;stroke-linejoin:round;stroke-miterlimit:10;" d="
						M41.356,235.761c5.279,0.243,12.743,4.944,14.627,9.888"/>
				</g>
			</g>
		</g>
		<g id="Laptop_1">
			<path style="fill:#303030;" d="M139.443,248.151H69.929c-1.004,0-1.817,0.814-1.817,1.817v42.251
				c0,1.004,0.814,1.817,1.817,1.817h69.514c1.004,0,1.817-0.814,1.817-1.817v-42.251
				C141.26,248.964,140.447,248.151,139.443,248.151z"/>
			<path style="fill:#00826F;" d="M141.447,248.151H71.933c-1.004,0-1.817,0.814-1.817,1.817v42.251
				c0,1.004,0.814,1.817,1.817,1.817h69.514c1.004,0,1.817-0.814,1.817-1.817v-42.251
				C143.264,248.964,142.45,248.151,141.447,248.151z"/>
			<path style="fill:#FFFFFF;" d="M113.441,271.094c0,2.291-2.147,4.149-4.797,4.149c-2.649,0-4.797-1.858-4.797-4.149
				c0-2.291,2.148-4.149,4.797-4.149C111.294,266.945,113.441,268.802,113.441,271.094z"/>
		</g>
		<g id="Fingers">
			<path style="fill:#FFCCCC;" d="M143.264,277.512c3.424,1.797,5.756,3.748,5.867,7.739c0.111,3.991,1.152,7.018-1.213,7.964
				c0.095,3.027-0.734,5.07-3.92,5.013c-0.734,1.896-1.904,2.665-4.214,2.28c-2.923,1.267-6.245,0.421-10.437-1.369
				c-3.255-1.389-6.373-2.909-7.699-5.103c-0.752-1.245-0.037-3.872,2.139-3.494c-1.513-3.121,1.713-4.327,3.699-3.287
				c1.986,1.04,4.351,2.365,4.351,2.365s-3.383-1.447-1.964-3.73c0.883-1.421,2.192-1.206,5.976-0.053
				c3.784,1.153,5.883,0.988,7.415,0.352V277.512z"/>
			<path style="fill:none;stroke:#303030;stroke-width:1.5;stroke-linecap:round;stroke-linejoin:round;stroke-miterlimit:10;" d="
				M143.264,277.512c3.424,1.797,5.756,3.748,5.867,7.739c0.111,3.991,1.152,7.018-1.213,7.964"/>
			<path style="fill:none;stroke:#303030;stroke-width:1.5;stroke-linecap:round;stroke-linejoin:round;stroke-miterlimit:10;" d="
				M130.451,288.852c3.881,2.508,6.746,3.308,10.339,4.305"/>
			<path style="fill:none;stroke:#303030;stroke-width:1.5;stroke-linecap:round;stroke-linejoin:round;stroke-miterlimit:10;" d="
				M123.786,290.542c4.055,2.805,8.598,5.598,13.41,6.672"/>
		</g>
	</g>
</g>
<g id="Character_1">
	<g id="Character_00000059272301784450539980000015276032239254089881_">
		<g id="Arm_00000126304476013572640640000016168898928733818290_">
			<path style="fill:#D48983;" d="M171.021,230.545c0.838-0.448,1.7,0.317,2.38,1.308c0.491,0.717,0.973,1.44,1.455,2.163
				c0.189,0.283,1.125,2.222,1.655,1.652c0.098-0.105,0.084-0.269,0.063-0.411c-0.402-2.734-1.546-5.327-1.678-8.109
				c-0.027-0.574-0.01-1.162,0.174-1.706c0.185-0.545,0.558-1.047,1.084-1.279c0.527-0.232,1.21-0.138,1.581,0.302
				c0.124-0.566,0.392-1.125,0.859-1.469c1.494-1.099,2.763,0.684,3.259,1.882c0.542,1.308,0.753,2.704,1.162,4.051
				c0.508,1.673,0.862,2.661,1.063,3.234c0.201,0.573,0.457,1.152,0.747,1.087c0.29-0.065,0.288-0.233,0.218-0.927
				c-0.336-3.314-0.425-3.865-0.798-6.797c-0.217-1.708-0.383-2.5-0.026-3.556c0.253-0.75,1.512-1.006,2.122-0.326
				c0.964,1.076,1.038,2.501,1.432,4.325c0.482,2.234,1.102,6.163,1.754,8.812c0.357,1.451,0.797,1.764,1.105,1.812
				c0.652,0.103,1.091-1.533,1.233-2.226c0.217-1.058,0.37-2.167,0.956-3.099c0.419-0.666,1.551-1.225,2.237-0.594
				c0.164,0.151,0.259,0.363,0.325,0.577c0.328,1.062,0.056,2.517,0.019,3.625c-0.044,1.326-0.141,2.65-0.288,3.969
				c-0.203,1.821-0.43,3.609-0.447,5.6c-0.018,1.991,0.884,4.391,1.573,5.677c2.914,5.438,5.702,9.193,9.335,14.153
				c0.006-0.422,5.471-5.907,9.656-10.264c8.092-8.423,10.074-10.5,18.166-12.615v27.057c0,0-15.181,11.196-21.14,14.669
				c-5.959,3.473-13.089,5.911-18.503-3.497c-6.095-10.593-8.24-20.589-9.947-24.082c-1.708-3.493-4.139-6.811-6.258-10.26
				c-0.898-1.462-2.215-4.084-3.027-5.582c-1.463-2.699-3.244-5.919-3.682-6.764C170.468,232.217,170.184,230.993,171.021,230.545z"
				/>
			<path style="fill:none;stroke:#303030;stroke-width:1.5;stroke-linecap:round;stroke-linejoin:round;stroke-miterlimit:10;" d="
				M187.436,239.27c-1.99,1.729-2.733,4.751-1.774,7.206"/>
			<path style="fill:none;stroke:#303030;stroke-width:1.5;stroke-linecap:round;stroke-linejoin:round;stroke-miterlimit:10;" d="
				M177.603,224.341c1.03,3.328,2.141,7.183,3.084,10.984"/>
			<g>
				<path style="fill:#303030;" d="M183.105,262.248c0.729,0.746,1.639,1.221,2.665,1.449c0.374,0.083,0.775,0.133,1.174,0.151
					c2.571,0.11,5.592-1.118,8.025-3.503c1.831-1.805,3.064-3.995,3.489-6.174c0.011-0.048,0.023-0.105,0.024-0.155
					c0.396-2.226-0.116-4.171-1.418-5.508c-0.55-0.555-1.212-0.974-1.966-1.243c0.233,0.807,0.526,1.566,0.819,2.195
					c0.034,0.028,0.059,0.053,0.093,0.081c0.533,0.541,0.882,1.233,1.034,2.042c0.137,0.695,0.135,1.469-0.031,2.307
					c-0.371,1.889-1.463,3.809-3.075,5.401c-2.359,2.322-5.292,3.428-7.541,3.048c-0.874-0.144-1.647-0.508-2.237-1.112
					c-1.363-1.38-1.467-3.667-0.508-5.979c-0.262-0.541-0.547-1.068-0.861-1.6C181.117,256.815,181.119,260.236,183.105,262.248z"/>
			</g>
			<g>
				<path style="fill:#303030;" d="M185.085,266.562c0.729,0.746,1.639,1.221,2.665,1.449c0.374,0.083,0.775,0.133,1.174,0.151
					c2.571,0.11,5.592-1.118,8.025-3.503c1.831-1.805,3.064-3.995,3.489-6.174c0.011-0.048,0.023-0.105,0.025-0.155
					c0.396-2.226-0.117-4.171-1.418-5.508c-0.55-0.555-1.212-0.974-1.967-1.243c0.233,0.806,0.526,1.566,0.819,2.195
					c0.034,0.028,0.059,0.053,0.093,0.081c0.533,0.541,0.882,1.233,1.034,2.042c0.137,0.695,0.135,1.469-0.031,2.307
					c-0.371,1.889-1.463,3.809-3.075,5.401c-2.359,2.322-5.292,3.428-7.541,3.048c-0.874-0.144-1.647-0.508-2.237-1.112
					c-1.277-1.294-1.449-3.385-0.676-5.546c-0.17-0.518-0.466-1.417-0.693-2.033C183.097,261.129,183.099,264.55,185.085,266.562z"
					/>
			</g>
			<path style="fill:none;stroke:#303030;stroke-width:1.5;stroke-linecap:round;stroke-linejoin:round;stroke-miterlimit:10;" d="
				M205.583,264.285c1.455,2.539,2.134,5.679,2.224,8.34"/>
		</g>
		<g id="Head_00000003080474238339148720000003788498377099126686_">
			<g id="Hair_00000072965292695972804660000009656492579869334164_">
				<path style="fill:#303030;" d="M227.431,217.187c3.454,10.605,15.134,16.311,26.09,12.743
					c10.955-3.568,17.037-15.057,13.583-25.663c-3.454-10.605-15.134-16.311-26.09-12.743
					C227.124,193.596,217.439,205.486,227.431,217.187z"/>
			</g>
			<path style="fill:#303030;" d="M270.578,197.955c-0.006,0.029-0.012,0.058-0.018,0.087c2.576,0.347,4.955,2.443,5.147,5.107
				c0.066,0.916-0.089,1.836-0.337,2.721c-0.591,2.109-1.745,4.09-3.439,5.478c-1.694,1.388-3.948,2.139-6.116,1.83
				c-1.456-0.207-2.809-0.866-4.073-1.619c-1.668-0.994-2.984-2.354-4.36-3.705c-1.35-1.326-2.385-2.975-2.973-4.775
				c-0.854-2.615-0.755-5.53,0.274-8.082c1.406-3.488,4.839-6.301,8.599-6.198c2.236,0.061,4.422,1.159,5.805,2.916
				C270.453,193.449,271.011,195.792,270.578,197.955z"/>
			<g>
				<path style="fill:none;stroke:#303030;stroke-width:1.5;stroke-linecap:round;stroke-linejoin:round;stroke-miterlimit:10;" d="
					M270.288,198.579c0.183-2.113,0.358-4.296-0.316-6.307c-0.61-1.82-1.92-3.394-3.598-4.325c-1.678-0.931-3.708-1.208-5.574-0.762
					c-0.828,0.198-1.63,0.538-2.301,1.061c-1.941,1.516-2.444,4.258-2.288,6.716"/>
				<path style="fill:none;stroke:#303030;stroke-width:1.5;stroke-linecap:round;stroke-linejoin:round;stroke-miterlimit:10;" d="
					M266.617,196.88c1.359-0.637,2.951-0.408,4.423-0.112c1.394,0.28,2.835,0.637,3.921,1.554c0.892,0.753,1.461,1.82,1.875,2.911
					c0.292,0.769,0.518,1.571,0.571,2.392c0.152,2.36-1.257,4.714-3.353,5.811c-2.095,1.097-4.755,0.946-6.785-0.267"/>
				<path style="fill:none;stroke:#303030;stroke-width:1.5;stroke-linecap:round;stroke-linejoin:round;stroke-miterlimit:10;" d="
					M269.815,224.15c0.638-6.8-1.113-10.132-3.944-13.967"/>
				<path style="fill:none;stroke:#303030;stroke-width:1.5;stroke-linecap:round;stroke-linejoin:round;stroke-miterlimit:10;" d="
					M266.03,210.179c3.074,1.498,5.612,4.067,7.073,7.158"/>
			</g>
			<g>
				<path style="fill:#D48983;" d="M224.505,217.68c-0.181-1.891-0.436-5.941,1.105-10.374c1.077-3.101,3.847-9.105,11.377-10.449
					c2.565,5.085,6.233,5.361,11.258,8.021c3.701,1.959,4.809,7.457,4.809,7.457c-0.314,1.915,1.813,6.717,1.813,6.717l1.01,7.392
					l3.261,11.45l4.976,1.101c0,0-1.638,6.712-14.278,8.857c-12.639,2.145-11.031-6.844-11.031-6.844l4.193-1.246l-0.441-6.323
					C233.693,234.615,225.702,230.173,224.505,217.68z"/>
			</g>
			<path style="fill:none;stroke:#303030;stroke-width:1.5;stroke-linecap:round;stroke-linejoin:round;stroke-miterlimit:10;" d="
				M240.018,193.965c-0.784,2.17,0.731,8.698,6.255,12.764c2.995,2.204,7.626,2.966,11.339,2.767"/>
			<g>
				
					<path style="fill:#D48983;stroke:#303030;stroke-width:1.5;stroke-linecap:round;stroke-linejoin:round;stroke-miterlimit:10;" d="
					M252.041,213.983c0.795-2.301,2.417-4.464,4.731-5.429c2.314-0.965,5.326-0.429,6.656,1.573
					c1.315,1.979,0.631,4.827-1.133,6.537c-1.764,1.71-4.619,2.722-7.649,2.244"/>
				<g>
					
						<path style="fill:none;stroke:#303030;stroke-width:1.5;stroke-linecap:round;stroke-linejoin:round;stroke-miterlimit:10;" d="
						M261.191,211.706c-1.352-0.527-3-0.329-4.214,0.507c-1.214,0.836-1.953,2.282-1.891,3.698"/>
					
						<path style="fill:none;stroke:#303030;stroke-width:1.5;stroke-linecap:round;stroke-linejoin:round;stroke-miterlimit:10;" d="
						M259.085,213.93c-0.575-0.269-1.25-0.302-1.891-0.203c-0.641,0.099-1.262,0.359-1.822,0.635"/>
				</g>
			</g>
			<g>
				<g>
					<path style="fill:#303030;" d="M251.369,229.138c0.165,2.957-4.908,6.001-8.64,6.769l-0.172-2.469
						C245.155,233.1,249.557,231.077,251.369,229.138z"/>
				</g>
				<path style="fill:none;stroke:#303030;stroke-width:1.5;stroke-linecap:round;stroke-linejoin:round;stroke-miterlimit:10;" d="
					M241.771,221.318c-1.168,1.954-4.638,3.229-6.892,2.502"/>
				<g>
					<g>
						<path style="fill:#FFFFFF;" d="M225.553,209.94c0.536-0.182,1.104-0.277,1.68-0.248c1.802,0.092,4.253,1.269,4.393,3.824
							c-1.828,1.581-4.538,2.116-6.642,0.882C224.914,212.12,225.303,210.812,225.553,209.94z"/>
						<path style="fill:#303030;" d="M226.189,213.165c0.482,1.092,1.836,1.578,2.97,1.177c1.234-0.436,1.89-1.742,1.465-2.919
							c-0.369-1.023-1.533-1.613-2.585-1.475c-1.264,0.165-2.256,1.579-1.978,2.826
							C226.092,212.912,226.135,213.042,226.189,213.165z"/>
						<polygon style="fill:#FFFFFF;" points="230.794,211.378 228.39,212.213 230.974,212.67 						"/>
						
							<path style="fill:none;stroke:#303030;stroke-width:1.5;stroke-linecap:round;stroke-linejoin:round;stroke-miterlimit:10;" d="
							M231.626,213.517c-0.904-2.226-2.542-2.94-4.114-3.283c-0.789-0.172-1.498-0.198-2.182-0.04"/>
					</g>
					
						<path style="fill:none;stroke:#303030;stroke-width:1.5;stroke-linecap:round;stroke-linejoin:round;stroke-miterlimit:10;" d="
						M223.324,209.057c0.243,0.659,0.882,1.153,1.581,1.221"/>
					
						<path style="fill:none;stroke:#303030;stroke-width:1.5;stroke-linecap:round;stroke-linejoin:round;stroke-miterlimit:10;" d="
						M230.602,205.088c-1.268,0.066-3.089,0.605-4.255,2.159"/>
				</g>
				<g>
					<g>
						<path style="fill:#FFFFFF;" d="M246.757,211.025c-0.84-1.524-2.667-2.439-4.46-2.233c-1.792,0.206-4.164,1.535-4.143,4.094
							C239.296,215.242,245.04,214.888,246.757,211.025z"/>
						<path style="fill:#303030;" d="M240.858,212.327c0.592,1.201,2.094,1.68,3.356,1.069c1.261-0.611,1.804-2.08,1.212-3.281
							c-0.592-1.201-2.094-1.68-3.356-1.069C240.809,209.656,240.266,211.126,240.858,212.327z"/>
						<polygon style="fill:#FFFFFF;" points="245.602,210.046 243.142,211.221 245.947,211.4 						"/>
						
							<path style="fill:none;stroke:#303030;stroke-width:1.5;stroke-linecap:round;stroke-linejoin:round;stroke-miterlimit:10;" d="
							M238.154,212.887c0.762-2.279,2.351-3.094,3.898-3.536c1.697-0.484,3.061-0.247,4.664,1.063"/>
					</g>
					
						<path style="fill:none;stroke:#303030;stroke-width:1.5;stroke-linecap:round;stroke-linejoin:round;stroke-miterlimit:10;" d="
						M248.215,209.058c-0.201,0.673-0.808,1.206-1.501,1.319"/>
					
						<path style="fill:none;stroke:#303030;stroke-width:1.5;stroke-linecap:round;stroke-linejoin:round;stroke-miterlimit:10;" d="
						M239.144,203.523c3.113-0.678,5.164-0.437,7.666,1.424"/>
				</g>
				
					<path style="fill:#D48983;stroke:#303030;stroke-width:1.5;stroke-linecap:round;stroke-linejoin:round;stroke-miterlimit:10;" d="
					M233.886,219.133c-2-0.579-3.303-2.157-2.479-4.123c0.739-1.763,2.719-2.987,2.719-6.979"/>
			</g>
			<g>
				<path style="fill:#00826F;" d="M253.763,220.645c0.441,1.306,1.857,2.008,3.163,1.567c1.306-0.441,2.008-1.857,1.567-3.163
					c-0.441-1.306-1.857-2.007-3.163-1.567C254.023,217.923,253.322,219.339,253.763,220.645z"/>
				<path style="fill:#00826F;" d="M259.222,217.87c0.283,0.84,1.194,1.291,2.033,1.007c0.84-0.283,1.291-1.194,1.007-2.034
					c-0.283-0.84-1.194-1.291-2.034-1.007C259.39,216.12,258.939,217.03,259.222,217.87z"/>
			</g>
		</g>
		
			<path id="Chest_00000078758055159731832320000000563120817921221296_" style="fill:#FFFFFF;stroke:#303030;stroke-width:1.5;stroke-linecap:round;stroke-linejoin:round;stroke-miterlimit:10;" d="
			M257.384,302.082c-13.383,1.613-19.648,0.765-22.623-0.433c-4.455-1.793-4.235-5.62-3.618-8.739
			c0.617-3.12-3.89-14.355-4.846-24.431c-1.003-10.578,7.102-27.08,7.102-27.08l8.187-1.574c0,0-3.628,6.967,4.173,7.058
			c10.412,0.121,16.053-9.381,16.053-9.381s7.54,0.475,12.431,1.993c6.222,1.931,6.849,12.17,6.649,22.405
			c-0.2,10.235-1.091,21.738,0.725,24.923c1.817,3.185,3.107,6.8-0.544,9.207S270.766,300.469,257.384,302.082z"/>
		<g id="Legs_00000120531131017283681230000013790316031426807462_">
			<g id="Leg_00000151518364821670516580000015718086069230521530_">
				<path style="fill:#D48983;" d="M223.818,322.583c-14.914,13.835-24.154,26.045-28.033,33.248
					c-3.879,7.202-7.544,21.435,7.11,29.994c12.08,7.055,46.916,12.715,60.163,15.009c21.71,3.76,32.301,6.569,32.301,6.569
					s4.606-8.881,1.027-18.755c-9.394-3.611-40.097-22.49-52.429-24.968l24.408-8.867v-32.231H223.818z"/>
				
					<path style="fill:#303030;stroke:#303030;stroke-width:1.5;stroke-linecap:round;stroke-linejoin:round;stroke-miterlimit:10;" d="
					M276.064,391.535c-2.102,6.815-1.757,12.558,0.254,13.028c3.34,0.781,6.595,1.537,8.829,2.124c1.457,0.383,2.32,0.9,5.607,1.966
					c3.287,1.065,13.085,5.319,16.742,8.317s4.746,6.381,7.295,8.701c2.55,2.32,4.677,3.295,6.61,2.131
					c1.934-1.164,6.054-12.862,4.21-17.599c-1.844-4.736-2.663-7.966-6.82-10.945c-4.157-2.978-7.541-4.235-9.571-7.716
					s-2.997-5.898-6.188-6.478c-3.19-0.58-10.789,0.425-10.789,0.425l-2.743-1.413c0,0-3.649-1.932-5.014-2.512
					C281.579,380.328,278.221,384.542,276.064,391.535z"/>
				<g>
					<path style="fill:#F55571;" d="M288.787,409.362c3.973,1.087,14.923,6.381,17.814,8.353c6.674,4.553,5.719,9.843,10.855,11.769
						c2.873,1.077,5.086,0.434,5.086,0.434c2.407-3.448,5.797-12.893,4.49-19.602c-2.061-10.578-9.732-13.477-13.809-16.876
						c-4.076-3.4-3.863-8.479-8.156-11.618c-4.937-1.244-8.748,0.363-11.494,0.221c-2.626-0.136-3.64,0.07-4.071,2.035l2.743,1.413
						c1.764,2.021,2.705,5.704,0.556,7.404C286.334,392.724,284.813,408.274,288.787,409.362z"/>
					
						<path style="fill:#FFFFFF;stroke:#303030;stroke-width:1.5;stroke-linecap:round;stroke-linejoin:round;stroke-miterlimit:10;" d="
						M330.985,408.169c-1.944-10.621-10.165-10.96-14.241-14.359c-3.602-3.004-2.518-6.862-5.299-10.147
						c-0.661-0.781-1.536-1.24-2.465-1.382l-3.914-0.459c4.293,3.139,4.08,8.218,8.156,11.618c4.077,3.4,11.865,6.256,13.809,16.876
						c1.252,6.839-4.152,19.081-4.152,19.081s1.905,0.145,3.047-0.472c2.273-1.228,3.752-5.529,4.489-8.159
						C331.768,415.943,331.686,411.998,330.985,408.169z"/>
					
						<path style="fill:none;stroke:#303030;stroke-width:1.5;stroke-linecap:round;stroke-linejoin:round;stroke-miterlimit:10;" d="
						M325.613,405.616c-2.321-0.026-4.977-0.579-6.858-3.041c-1.704-2.23-5.192-5.224-7.69-6.503
						c-3.567-1.826-6.255-3.21-7.66-5.306c-2.528-3.77-1.774-6.37-5.277-9.202"/>
					
						<path style="fill:none;stroke:#303030;stroke-width:1.5;stroke-linecap:round;stroke-linejoin:round;stroke-miterlimit:10;" d="
						M314.793,406.206c-1.315,1.963-5.274,9.665-4.34,14.611"/>
					<g>
						
							<path style="fill:none;stroke:#303030;stroke-width:1.5;stroke-linecap:round;stroke-linejoin:round;stroke-miterlimit:10;" d="
							M307.581,402.576c-0.476,5.101-0.879,10.265-0.677,15.334"/>
						
							<path style="fill:none;stroke:#303030;stroke-width:1.5;stroke-linecap:round;stroke-linejoin:round;stroke-miterlimit:10;" d="
							M311.064,404.563c-2.547,3.283-4.741,7.822-7.134,11.28"/>
					</g>
					<g>
						
							<path style="fill:none;stroke:#303030;stroke-width:1.5;stroke-linecap:round;stroke-linejoin:round;stroke-miterlimit:10;" d="
							M305.979,400.411c-3.974,4.678-5.949,8.943-7.852,12.551"/>
						
							<path style="fill:none;stroke:#303030;stroke-width:1.5;stroke-linecap:round;stroke-linejoin:round;stroke-miterlimit:10;" d="
							M301.875,399.783c-0.867,4.628-0.394,10.948-0.006,15.564"/>
					</g>
					<g>
						
							<path style="fill:none;stroke:#303030;stroke-width:1.5;stroke-linecap:round;stroke-linejoin:round;stroke-miterlimit:10;" d="
							M296.386,395.565c-1.246,4.349-1.155,13.01-0.835,17.062"/>
						
							<path style="fill:none;stroke:#303030;stroke-width:1.5;stroke-linecap:round;stroke-linejoin:round;stroke-miterlimit:10;" d="
							M300.081,398.075c-1.709,1.516-6.603,10.377-7.941,12.585"/>
					</g>
				</g>
				<path style="fill:none;stroke:#303030;stroke-width:1.5;stroke-linecap:round;stroke-linejoin:round;stroke-miterlimit:10;" d="
					M245.031,363.841c-5.926-1.286-13.935-2.242-20.424,0.065"/>
				<path style="fill:#303030;" d="M205.826,341.497c8.509-0.488,18.98-0.009,30.029,6.17c11.049,6.179,14.159,13.898,14.159,13.898
					l21.43-7.636v-33.196h-48.117c0,0-8.557,7.717-13.197,12.981c-4.641,5.264-7.84,8.666-6.385,10.373L205.826,341.497z"/>
			</g>
			<g id="Leg_00000021803755613477328660000002705925103124691100_">
				<g>
					<path style="fill:#D48983;" d="M275.43,362.125c-8.903,0-17.195-4.429-26.092-13.366c-8.163-8.2-10.117-11.28-10.117-11.28
						s-1.944,11.147-4.911,21.577c-2.968,10.431-7.477,21.875-8.631,32.273c-1.154,10.398,2.556,24.849-9.068,26.403
						c-11.623,1.554-17.894,1.616-16.839-6.634c1.055-8.25,6.183-14.677,8.296-28.346c2.113-13.669,2.749-42.003,3.588-58.377
						c0.714-13.947,0.898-23.649,10.55-29.604c8.845-5.458,26.06,4.159,31.006,6.343l8.011,2.508l20.677-6.408
						c0,0,8.903,11.779,12.86,22.41c3.302,8.872,10.826,38.041-8.336,42.075C282.374,362.551,279.809,362.125,275.43,362.125z"/>
					
						<path style="fill:#303030;stroke:#303030;stroke-width:1.5;stroke-linecap:round;stroke-linejoin:round;stroke-miterlimit:10;" d="
						M226.081,391.141c0.272-2.288,1.435-6.445,2.105-8.389c0.67-1.944,3.186-6.116,0.827-6.805l-0.636,2.373
						c0,0-6.028,1.627-12.439,0.191c-6.411-1.435-6.955-3.424-6.955-3.424l0.217-2.416c0,0-2.352,0.584-2.543,4.456
						c-0.191,3.872-1.783,14.09-2.821,18.962c-1.039,4.872-3.926,13.048-4.787,16.015c-0.861,2.966-1.523,5.73,8.066,6.688
						c9.589,0.958,16.212-1.135,17.493-5.829c1.281-4.694,1.186-7.701,1.281-11.795C225.985,397.073,225.602,395.16,226.081,391.141
						z"/>
					
						<path style="fill:none;stroke:#303030;stroke-width:1.5;stroke-linecap:round;stroke-linejoin:round;stroke-miterlimit:10;" d="
						M199.772,411.099c1.055-8.25,6.183-14.677,8.296-28.346c2.113-13.669,2.749-42.003,3.588-58.377"/>
					
						<path style="fill:none;stroke:#303030;stroke-width:1.5;stroke-linecap:round;stroke-linejoin:round;stroke-miterlimit:10;" d="
						M238.118,311.573c2,6.187,2.242,20.984,0.708,29.582c-1.332,7.467-4.051,17.416-8.283,30.071
						c-5.701,17.047-6.376,24.516-6.376,24.516"/>
				</g>
				<g>
					<g>
						<path style="fill:#F55571;" d="M199.646,405.818c-1.058,2.688-3.082,5.648-3.561,8.436s-0.534,3.746,2.262,5.511
							c1.483,0.936,3.367,1.389,5.233,1.686c5.487,0.875,11.367,0.851,16.652-0.597c1.848-0.507,3.595-1.463,4.915-2.596
							c2.211-1.897,2.138-2.936,2.268-5.503c0.118-2.322-0.27-5.268-0.31-7.592c-0.082-4.775,0.88-4.514-0.162-13.928
							c-0.056,0.458-0.927,3.279-2.686,3.966c-0.977,0.381-1.394-2.32-3.154-3.831c-1.507-1.294-4.174-2.384-6.397-2.586
							c-3.882-0.353-6.83-0.083-9.555,1.579c-2.531,1.543-2.401,3.684-2.713,5.932C201.831,400.681,201.23,401.806,199.646,405.818z
							"/>
					</g>
					<g>
						
							<path style="fill:none;stroke:#303030;stroke-width:1.5;stroke-linecap:round;stroke-linejoin:round;stroke-miterlimit:10;" d="
							M202.957,408.944c5.61-1.276,11.718-1.168,17.249,0.303"/>
						
							<path style="fill:none;stroke:#303030;stroke-width:1.5;stroke-linecap:round;stroke-linejoin:round;stroke-miterlimit:10;" d="
							M202.957,406.981c3.885-1.569,9.496-2.746,17.482-2.797"/>
						
							<path style="fill:none;stroke:#303030;stroke-width:1.5;stroke-linecap:round;stroke-linejoin:round;stroke-miterlimit:10;" d="
							M203.836,403.715c3.257,0.469,10.688,1.108,16.37,3.266"/>
						
							<path style="fill:none;stroke:#303030;stroke-width:1.5;stroke-linecap:round;stroke-linejoin:round;stroke-miterlimit:10;" d="
							M204.151,402.115c3.599-1.582,8.791-2.777,16.171-2.856"/>
						
							<path style="fill:none;stroke:#303030;stroke-width:1.5;stroke-linecap:round;stroke-linejoin:round;stroke-miterlimit:10;" d="
							M204.982,398.846c3.007,0.458,9.871,1.071,15.11,3.21"/>
						
							<path style="fill:none;stroke:#303030;stroke-width:1.5;stroke-linecap:round;stroke-linejoin:round;stroke-miterlimit:10;" d="
							M205.198,397.306c3.371-1.592,8.228-2.803,15.124-2.903"/>
						
							<path style="fill:none;stroke:#303030;stroke-width:1.5;stroke-linecap:round;stroke-linejoin:round;stroke-miterlimit:10;" d="
							M205.99,394.036c2.808,0.449,9.219,1.042,14.104,3.164"/>
						
							<path style="fill:none;stroke:#303030;stroke-width:1.5;stroke-linecap:round;stroke-linejoin:round;stroke-miterlimit:10;" d="
							M226.272,396.707c0,0-0.72,1.026-1.261,1.764c-1.103,1.503-0.856,3.27-0.804,5.003c0.051,1.733,0.26,3.494-0.247,5.181
							c-0.291,0.967-0.748,1.904-0.963,2.878c-0.476,2.151,2.015,6.624,2.015,6.624"/>
						
							<path style="fill:none;stroke:#303030;stroke-width:1.5;stroke-linecap:round;stroke-linejoin:round;stroke-miterlimit:10;" d="
							M200.818,403.347c-0.061,1.466-0.123,2.933-0.184,4.399c-0.032,0.765-0.064,1.534-0.239,2.287
							c-0.246,1.064-0.768,2.074-1.259,3.084c-1.136,2.338-2.132,4.813-1.788,7.301"/>
					</g>
					
						<path style="fill:#FFFFFF;stroke:#303030;stroke-width:1.5;stroke-linecap:round;stroke-linejoin:round;stroke-miterlimit:10;" d="
						M227.522,421.197c-0.145,1.411-2.023,5.185-11.901,6.311c-7.848,0.894-14.411-0.336-17.771-2.52
						c-2.315-1.514-2.534-5.226-2.021-9.189l0.059-0.016c-0.353,3.795,4.128,5.1,7.695,5.67c5.483,0.876,11.404,1.003,16.646-0.597
						c6.042-1.844,7.005-5.153,7.181-8.099c0.017-0.284,0.024-0.576,0.022-0.875C227.725,416.086,227.836,418.148,227.522,421.197z"
						/>
				</g>
				<g>
					<path style="fill:#00826F;" d="M246.848,298.127c5.027,4.119,10.693,18.582,8.606,30.51
						c-2.087,11.928-10.56,15.494-10.56,15.494l-2.901-3.252c0,0-1.73,1.284,2.331,5.345c5.549,5.549,9.906,11.867,19.182,15.901
						c3.939,1.713,25.347,2.893,31.461-1.878c6.113-4.771,11.248-16.098,6.909-31.049c-5.245-18.071-19.433-34.427-19.433-34.427
						c-5.193,5.426-25.058,7.311-25.058,7.311L246.848,298.127z"/>
					
						<path id="Chest_00000020397805918522361520000014095333574349503121_" style="fill:none;stroke:#303030;stroke-width:1.5;stroke-linecap:round;stroke-linejoin:round;stroke-miterlimit:10;" d="
						M281.617,286.822c1.817,3.185,3.107,6.8-0.544,9.207s-10.307,4.44-23.689,6.053"/>
					<g>
						
							<path style="fill:none;stroke:#303030;stroke-width:1.5;stroke-linecap:round;stroke-linejoin:round;stroke-miterlimit:10;" d="
							M246.848,298.127c11.977,4.897,22.796,7.67,32.608,16.111c5.96,5.128,9.462,11.672,10.424,19.476"/>
						
							<path style="fill:none;stroke:#303030;stroke-width:1.5;stroke-linecap:round;stroke-linejoin:round;stroke-miterlimit:10;" d="
							M286.65,314.344c-6.134-3.9-13.013-6.242-23.593-9.945"/>
					</g>
				</g>
			</g>
		</g>
		<g id="Arm_00000065777348400742533260000003618101220973894079_">
			<g id="Arm_00000165932850692012155870000003999209793281000361_">
				<g>
					<path style="fill:#D48983;" d="M257.447,314.882c0.086-0.95,0.791-1.803,1.476-2.411c1.4-1.244,3.019-2.209,4.684-3.053
						c0.838-0.425,1.697-0.806,2.545-1.211c0.571-0.273,1.212-0.802,0.438-1.287c-1.46-0.914-3.218-1.296-4.911-1.614
						c-1.325-0.249-2.767-0.429-3.802-1.339c-1.188-1.044-0.601-2.276,0.641-2.501c4.164-0.753,8.896,0.468,13.013,1.446
						c4.475,1.063,9.481,2.245,13.496-0.754c6.647-4.967,10.609-15.553,10.602-15.561c-2.882-3.644-11.759-12.298-15.388-14.601
						c-4.687-2.973-6.61-6.952-8.319-12.277c-2.234-6.96-2.382-13.255,0.675-19.45c11.39-0.799,16.671,6.307,28.388,19.13
						c3.58,3.917,8.556,10.028,12.125,14.753c4.948,6.551,8.06,10.961,2.898,18.806c-3.972,6.037-14.616,16.505-21.616,21.434
						c-2.355,1.658-5.011,2.963-7.833,3.592c-3.589,0.8-7.263-0.482-10.822,0.371c-1.371,0.329-2.467,0.521-3.808,0.959
						c-2.602,0.849-4.139,1.818-5.73,1.248c-0.68-0.244-1.68-1.071-1.017-2.573c-0.951,0.71-2.098,1.127-3.247,0.672
						c-0.834-0.33-1.841-1.17-0.817-2.677c-0.557,0.42-1.236,0.711-1.933,0.693C258.129,316.649,257.35,315.949,257.447,314.882z"/>
				</g>
				<path style="fill:none;stroke:#303030;stroke-width:1.5;stroke-linecap:round;stroke-linejoin:round;stroke-miterlimit:10;" d="
					M280.628,272.405c-4.687-2.973-7.002-7.361-8.711-12.685c-2.234-6.96-1.997-13.608,1.06-19.802"/>
				<path style="fill:none;stroke:#303030;stroke-width:1.5;stroke-linecap:round;stroke-linejoin:round;stroke-miterlimit:10;" d="
					M270.188,311.041c-3.837,0.846-6.4,2.066-9.076,4.943"/>
				<path style="fill:none;stroke:#303030;stroke-width:1.5;stroke-linecap:round;stroke-linejoin:round;stroke-miterlimit:10;" d="
					M272.547,314.54c-3.749,0.664-5.753,1.597-7.37,3.449"/>
				<path style="fill:none;stroke:#303030;stroke-width:1.5;stroke-linecap:round;stroke-linejoin:round;stroke-miterlimit:10;" d="
					M301.383,282.341c-2.126,0.235-4.731,2.661-5.758,4.257"/>
			</g>
		</g>
	</g>
</g>
<g id="Backpack_00000147186955225571662520000002049862611250144156_">
	<g id="Backpack">
		<g>
			<g>
				<path style="fill:#303030;" d="M337.63,325.016c-0.289-0.849-0.587-1.73-0.696-2.625c-0.082-0.676-0.044-1.382,0.275-1.917
					c0.744-1.249,2.986-1.37,4.412-1.594c2.223-0.35,4.465-0.586,6.713-0.685c1.703-0.075,3.818-0.345,5.391,0.464
					c0.048,0.025,0.091,0.06,0.138,0.086c0.161,0.091-0.26-0.267-0.021-0.02c0.094,0.097,0.194,0.19,0.289,0.286
					c0.242,0.246-0.036-0.107,0.094,0.124c0.093,0.167,0.2,0.324,0.289,0.494c0.055,0.106,0.193,0.404,0.191,0.399
					c0.008,0.019,0.132,0.36,0.179,0.497c0.195,0.571,0.35,1.154,0.495,1.739c0.501,2.028,3.633,1.169,3.131-0.863
					c-0.437-1.768-1.006-3.82-2.457-5.045c-1.819-1.535-4.424-1.5-6.674-1.445c-2.759,0.067-5.506,0.362-8.233,0.777
					c-2.342,0.356-4.937,0.703-6.457,2.739c-1.633,2.187-1.001,5.073-0.19,7.451c0.283,0.83,1.116,1.376,1.997,1.134
					C337.304,326.791,337.914,325.85,337.63,325.016L337.63,325.016z"/>
			</g>
			
				<path style="fill:#FFFFFF;stroke:#303030;stroke-width:1.5;stroke-linecap:round;stroke-linejoin:round;stroke-miterlimit:10;" d="
				M389.906,372.573c-1.283-6.699-2.478-11.186-4.362-32.4c-0.975-10.975-2.003-19.981-28.277-17.916
				c-27.402,2.154-39.196,7.272-40.764,11.406c-1.568,4.133,0,15.63,0.855,26.344c0.855,10.714,4.959,43.333,8.68,48.118
				l68.841-14.678C394.88,388.251,391.189,379.272,389.906,372.573z"/>
			<path style="fill:none;stroke:#303030;stroke-width:1.5;stroke-linecap:round;stroke-linejoin:round;stroke-miterlimit:10;" d="
				M321.511,338.573c0.359,12.014,3.219,42.313,7.603,56.615"/>
			
				<path style="fill:#00826F;stroke:#00826F;stroke-width:1.5;stroke-linecap:round;stroke-linejoin:round;stroke-miterlimit:10;" d="
				M393.006,391.039c-3.379,0-57.429,0-61.982,0c-4.552,0-6.286,2.385-6.286,6.626c0,4.241-0.65,7.682,1.301,10.46
				c1.951,2.778,2.71,4.794,5.714,4.794l60.881-11.675C394.526,396.208,396.385,391.039,393.006,391.039z"/>
			
				<path style="fill:#303030;stroke:#303030;stroke-width:1.5;stroke-linecap:round;stroke-linejoin:round;stroke-miterlimit:10;" d="
				M390.365,397.14h-58.613c-1.457,0-2.638,1.181-2.638,2.638v10.502c0,1.457,1.181,2.638,2.638,2.638h54.665
				c1.099,0,2.083-0.681,2.469-1.71l3.948-10.502C393.483,398.981,392.208,397.14,390.365,397.14z"/>
		</g>
		
			<path style="fill:#00826F;stroke:#303030;stroke-width:1.5;stroke-linecap:round;stroke-linejoin:round;stroke-miterlimit:10;" d="
			M320.898,329.744c6.445,2.391,6.761,9.599,9.309,13.555c3.133,4.865,8.296,6.142,26.031,3.731
			c15.271-2.076,22.035-3.985,23.39-9.197c1.234-4.75-1.204-8.255-3.696-14.329C358.564,318.675,330.05,324.39,320.898,329.744z"/>
		
			<path style="fill:#303030;stroke:#303030;stroke-width:1.5;stroke-linecap:round;stroke-linejoin:round;stroke-miterlimit:10;" d="
			M336.633,365.309l40.291-3.855c2.635-0.252,4.995,1.625,5.333,4.25c0.56,4.35,1.529,8.908,3.038,13.575
			c1.025,3.168-1.238,6.435-4.568,6.492l-41.788,0.716c-2.352,0.04-4.413-1.588-4.897-3.89c-0.816-3.878-1.429-7.83-1.839-11.94
			C331.935,367.962,333.937,365.567,336.633,365.309z"/>
		
			<path style="fill:#FFFFFF;stroke:#303030;stroke-width:1.5;stroke-linecap:round;stroke-linejoin:round;stroke-miterlimit:10;" d="
			M337.528,362.296l40.291-3.855c2.635-0.252,4.995,1.625,5.333,4.25c0.56,4.35,1.529,8.908,3.038,13.575
			c1.025,3.168-1.238,6.435-4.568,6.492l-41.788,0.716c-2.352,0.04-4.413-1.588-4.897-3.889c-0.816-3.879-1.429-7.83-1.838-11.94
			C332.83,364.949,334.832,362.553,337.528,362.296z"/>
		
			<path style="fill:#00826F;stroke:#303030;stroke-width:1.5;stroke-linecap:round;stroke-linejoin:round;stroke-miterlimit:10;" d="
			M378.537,358.43l-42.221,3.809c0.976,5.208,0,8.708,9.122,8.05c11.528-0.831,18.913-1.261,26.635-2.049
			C379.796,367.452,380.431,365.956,378.537,358.43z"/>
		
			<path style="fill:#303030;stroke:#303030;stroke-width:1.5;stroke-linecap:round;stroke-linejoin:round;stroke-miterlimit:10;" d="
			M358.604,372.244c1.227-0.09,5.223-0.137,6.353-1.207c0.139-0.131,0.234-0.278,0.276-0.442c0.078-0.306,0.049-0.628,0.02-0.943
			c-0.058-0.617-0.122-1.254-0.425-1.795c-0.691-1.231-2.143-0.973-3.32-0.989c-1.891-0.026-3.721,0.079-5.582,0.496
			c-0.729,0.163-1.504,0.398-1.956,0.993c-0.64,0.842-0.384,2.046,0.004,3.03C354.501,372.728,357.493,372.326,358.604,372.244z"/>
		<g>
			
				<polygon style="fill:#00826F;stroke:#303030;stroke-width:1.5;stroke-linecap:round;stroke-linejoin:round;stroke-miterlimit:10;" points="
				351.099,338.537 353.772,352.421 360.692,351.966 357.719,337.549 			"/>
			
				<path style="fill:#00826F;stroke:#303030;stroke-width:1.5;stroke-linecap:round;stroke-linejoin:round;stroke-miterlimit:10;" d="
				M351.099,338.537c0,0,1.049,8.61,4.695,10.168c3.647,1.559,7.17,0.21,7.17,0.21s-3.977-3.964-5.245-11.366L351.099,338.537z"/>
			
				<path style="fill:#303030;stroke:#303030;stroke-width:1.5;stroke-linecap:round;stroke-linejoin:round;stroke-miterlimit:10;" d="
				M356.831,357.177c1.147-0.146,4.896-0.391,5.902-1.452c0.124-0.13,0.206-0.273,0.237-0.429c0.058-0.291,0.014-0.592-0.029-0.885
				c-0.085-0.576-0.177-1.171-0.489-1.663c-0.711-1.121-2.06-0.805-3.165-0.761c-1.776,0.07-3.489,0.261-5.214,0.746
				c-0.676,0.19-1.392,0.449-1.786,1.03c-0.558,0.822-0.257,1.94,0.156,2.844C353.005,357.836,355.793,357.309,356.831,357.177z"/>
		</g>
	</g>
</g>
<g id="Books_00000078009307571476066120000009568530755764723383_">
	<g id="Books">
		<g id="Book_00000085945865970928882420000007415829498975082896_">
			
				<path style="fill:#303030;stroke:#303030;stroke-width:1.5;stroke-linecap:round;stroke-linejoin:round;stroke-miterlimit:10;" d="
				M415.488,298.003v-3.689h-45.556c-2.915,0-5.278,2.363-5.278,5.278v4.98c0,2.915,2.363,5.278,5.278,5.278h45.556v-3.689V298.003z
				"/>
			
				<path style="fill:#FFFFFF;stroke:#303030;stroke-width:1.5;stroke-linecap:round;stroke-linejoin:round;stroke-miterlimit:10;" d="
				M427.461,297.898h-43.95v8.263h43.95C423.618,306.16,423.618,297.898,427.461,297.898z"/>
			
				<path style="fill:#F55571;stroke:#303030;stroke-width:1.5;stroke-linecap:round;stroke-linejoin:round;stroke-miterlimit:10;" d="
				M430.397,298.003v-3.689h-45.556c-2.915,0-5.278,2.363-5.278,5.278v4.98c0,2.915,2.363,5.278,5.278,5.278h45.556v-3.689h-46.886
				c-0.92-2.697-0.907-5.416,0-8.158H430.397z"/>
			
				<line style="fill:#303030;stroke:#303030;stroke-width:1.5;stroke-linecap:round;stroke-linejoin:round;stroke-miterlimit:10;" x1="410.351" y1="300.857" x2="424.692" y2="300.857"/>
			
				<line style="fill:#303030;stroke:#303030;stroke-width:1.5;stroke-linecap:round;stroke-linejoin:round;stroke-miterlimit:10;" x1="410.351" y1="303.56" x2="424.692" y2="303.56"/>
		</g>
		<g id="Book_00000062153819698963939410000007954098449691335612_">
			
				<path style="fill:#303030;stroke:#303030;stroke-width:1.5;stroke-linecap:round;stroke-linejoin:round;stroke-miterlimit:10;" d="
				M424.406,282.026v-3.689H378.85c-2.915,0-5.278,2.363-5.278,5.278v4.98c0,2.915,2.363,5.278,5.278,5.278h45.556v-3.689V282.026z"
				/>
			
				<path style="fill:#FFFFFF;stroke:#303030;stroke-width:1.5;stroke-linecap:round;stroke-linejoin:round;stroke-miterlimit:10;" d="
				M436.379,281.921h-43.95v8.263h43.95C432.536,290.184,432.536,281.921,436.379,281.921z"/>
			
				<path style="fill:#00826F;stroke:#303030;stroke-width:1.5;stroke-linecap:round;stroke-linejoin:round;stroke-miterlimit:10;" d="
				M439.315,282.026v-3.689h-45.556c-2.915,0-5.278,2.363-5.278,5.278v4.98c0,2.915,2.363,5.278,5.278,5.278h45.556v-3.689h-46.886
				c-0.92-2.697-0.907-5.416,0-8.158H439.315z"/>
			
				<line style="fill:#303030;stroke:#303030;stroke-width:1.5;stroke-linecap:round;stroke-linejoin:round;stroke-miterlimit:10;" x1="419.268" y1="284.88" x2="433.609" y2="284.88"/>
			
				<line style="fill:#303030;stroke:#303030;stroke-width:1.5;stroke-linecap:round;stroke-linejoin:round;stroke-miterlimit:10;" x1="419.268" y1="287.583" x2="433.609" y2="287.583"/>
		</g>
	</g>
</g>
<g id="Speech_Bubble">
	<g id="Speech_Bubble_00000058556240974149174560000002615672361493589161_">
		
			<path id="Speech_Bubble_00000097463795299756772570000002263684121682131612_" style="fill:#FFFFFF;stroke:#303030;stroke-width:1.5;stroke-linecap:round;stroke-linejoin:round;stroke-miterlimit:10;" d="
			M214.401,197.213c-2.522-0.649-6.716-3.167-7.254-6.333l-0.002,0.001c0.004-0.019,0.006-0.035,0.01-0.054
			c4.142-4.547,6.688-10.573,6.688-17.209c0-14.135-11.459-25.593-25.594-25.593c-14.135,0-25.593,11.459-25.593,25.593
			c0,14.135,11.458,25.594,25.593,25.594c4.216,0,8.183-1.038,11.69-2.844c3.148,1.946,6.437,2.782,10.153,2.704
			C214.404,198.983,215.683,197.543,214.401,197.213z"/>
		<path style="fill:#FF95FB;" d="M186.503,179.224l-10.075-4.642c0,2.754,0,6.464,0,6.464c0,6.09,24.676,6.09,24.676,0
			c0,0,0-3.71,0-6.464l-10.075,4.642C189.781,179.806,187.751,179.806,186.503,179.224z M206.894,167.697l-15.462-7.128
			c-1.472-0.678-3.859-0.678-5.331,0l-15.463,7.128c-1.472,0.679-1.472,1.779,0,2.457l1.514,0.698v6.663
			c-0.496,0.172-0.857,0.63-0.857,1.184v2.022c0,0.699,0.567,1.266,1.266,1.266c0.7,0,1.266-0.567,1.266-1.266v-2.022
			c0-0.554-0.361-1.012-0.857-1.184v-6.285l13.13,6.052c1.472,0.678,3.858,0.678,5.33,0l15.463-7.128
			C208.365,169.476,208.365,168.376,206.894,167.697z"/>
	</g>
</g>
</svg>
